<?xml version="1.0" encoding="UTF-8"?>
<svg width="125px" height="38px" viewBox="0 0 125 38" version="1.1" xmlns="http://www.w3.org/2000/svg" xmlns:xlink="http://www.w3.org/1999/xlink">
    <!-- Generator: Sketch 55 (78076) - https://sketchapp.com -->
    <title>bbc-2</title>
    <desc>Created with Sketch.</desc>
    <g id="Symbols" stroke="none" stroke-width="1" fill="none" fill-rule="evenodd">
        <g id="Block/Links" transform="translate(-568.000000, -192.000000)" fill="#000000" fill-rule="nonzero">
            <g id="bbc-2" transform="translate(568.000000, 192.000000)">
                <path d="M125,38 L125,-4.26325641e-14 L86.0778443,-4.26325641e-14 L86.0778443,38 L125,38 Z M116.449039,10.8743783 C113.47015,9.09843781 110.489927,8.17760538 107.700428,8.17760538 C104.721538,8.17760538 102.248133,9.16416214 100.346899,11.1372756 C98.381646,13.0446648 97.3680101,15.4121243 97.3680101,18.3717946 C97.3680101,21.1993243 98.381646,23.6325082 100.284214,25.6070053 C102.312153,27.4472865 104.721538,28.3688108 107.637742,28.3688108 C110.744003,28.3688108 113.786911,27.382254 116.766467,25.4084487 L116.766467,29.5525405 C113.976301,31.1306162 110.87004,31.92 107.447019,31.92 C104.530815,31.92 102.121429,31.328481 100.092157,30.1447513 C98.1503727,28.9178142 96.5201813,27.2261094 95.3380708,25.2112757 C94.1970636,22.9766485 93.5628743,20.7399459 93.5628743,18.3717946 C93.5628743,14.4255676 94.8939382,11.203 97.6200853,8.57195135 C100.283547,5.94090272 103.580531,4.56 107.447019,4.56 C110.235851,4.56 113.215407,5.28365944 116.448372,6.79601082 L116.448372,10.8743783 L116.449039,10.8743783 L116.449039,10.8743783 Z M82.3353293,-4.26325641e-14 L43.4131737,-4.26325641e-14 L43.4131737,38 L82.3353293,38 L82.3353293,-4.26325641e-14 Z M55.3892216,5.32 L61.9774521,5.32 C64.0904978,5.32 65.7073177,5.58318119 66.8867529,6.17603145 C68.0681494,6.83467701 68.9376886,7.62422058 69.4979856,8.61253521 C70.1184313,9.66595256 70.4302886,10.8509605 70.4302886,12.2333543 C70.4302886,14.8665514 69.1867821,16.7102049 66.5762031,17.8301101 C68.440809,18.1590866 69.9321015,18.9493228 70.9892781,20.2659213 C72.0451471,21.4509293 72.5433343,22.9656063 72.6047904,24.6769766 C72.5433343,25.9942677 72.2321308,27.2443784 71.6110313,28.2984883 C70.9265144,29.3519056 69.9942114,30.2086297 68.6892488,30.932378 C67.3842862,31.5910235 65.83023,31.92 63.9035142,31.92 L55.3892216,31.92 L55.3892216,5.32 Z" id="Shape"></path>
                <path d="M61.6550286,16.72 C63.7130626,16.72 65.1745042,16.3464873 66.0379563,15.6610588 C66.9014085,14.8511261 67.3652695,13.9166891 67.3652695,12.7332437 C67.3652695,10.3663528 65.706128,9.12 62.4514165,9.12 L59.1317365,9.12 L59.1317365,16.72 L61.6550286,16.72 L61.6550286,16.72 Z M62.4361928,20.5325877 L59.1317365,20.5325877 L59.1317365,28.88 L62.681468,28.88 C64.3333743,28.88 65.6801349,28.7493124 66.5363451,28.4858627 C67.3320412,28.0253445 67.8831058,27.4998281 68.250053,26.9086222 C68.6170002,26.2510353 68.8622754,25.5284504 68.8622754,24.7394844 C68.8004738,23.9505184 68.6170002,23.2265505 68.1882514,22.5703465 C67.8213041,21.8463786 67.2097254,21.3208622 66.3522277,20.9917231 C65.5578192,20.6639668 64.2110585,20.4668982 62.4361928,20.5325877 L62.4361928,20.5325877 Z M38.9221557,-4.26325641e-14 L0,-4.26325641e-14 L0,38 L38.9221557,38 L38.9221557,-4.26325641e-14 Z M11.9760479,31.92 L11.9760479,5.32 L18.8502012,5.32 C21.0549509,5.32 22.6764516,5.58318804 23.9084374,6.17605374 C25.1404232,6.76822684 26.1131872,7.62428058 26.6971184,8.67772536 C27.3451729,9.66537312 27.6698824,10.8504119 27.7346878,12.2328417 C27.6698824,14.8661074 26.3730911,16.7098089 23.6492156,17.8948477 C25.659549,18.2245253 27.1507566,19.0140895 28.2538136,20.2649253 C29.3561885,21.4499641 29.9401198,22.9646805 29.9401198,24.6760954 C29.9401198,26.0585252 29.6160925,27.3100536 28.9025503,28.2977014 C28.1890082,29.4162506 27.2162442,30.2729969 25.919453,30.9316596 C24.5578563,31.5903223 22.8715501,31.9193074 20.8612167,31.9193074 L11.9760479,31.9193074 L11.9760479,31.92 L11.9760479,31.92 Z" id="Shape"></path>
                <path d="M18.7365767,9.12 L15.7185629,9.12 L15.7185629,17.48 L18.0723978,17.48 C19.8833331,17.48 21.211056,17.0691361 21.9965143,16.3151647 C22.7807026,15.492716 23.2035928,14.396358 23.2035928,13.1630454 C23.2029578,10.4902673 21.6942684,9.12 18.7365767,9.12 L18.7365767,9.12 Z M19.0232378,20.52 L15.7185629,20.52 L15.7185629,28.88 L19.2067235,28.88 C21.0428686,28.88 22.3890746,28.7491153 23.1848233,28.4852684 C23.8582482,28.1563254 24.4087054,27.6951127 24.8368388,27.0365341 C25.2044541,26.3128595 25.3879399,25.5877999 25.4491018,24.7332406 C25.3879399,23.8108151 25.1426484,23.0871405 24.7756769,22.5608317 C24.3557632,21.8319314 23.7028051,21.2931002 22.9395318,21.0456163 C22.083265,20.6515772 20.737059,20.52 19.0232378,20.52 L19.0232378,20.52 Z" id="Shape"></path>
            </g>
        </g>
    </g>
</svg>