<?xml version="1.0" encoding="UTF-8"?>
<svg width="50px" height="37px" viewBox="0 0 50 37" version="1.1" xmlns="http://www.w3.org/2000/svg" xmlns:xlink="http://www.w3.org/1999/xlink">
    <!-- Generator: Sketch 55 (78076) - https://sketchapp.com -->
    <title>cnbc-1</title>
    <desc>Created with Sketch.</desc>
    <g id="Symbols" stroke="none" stroke-width="1" fill="none" fill-rule="evenodd">
        <g id="Block/Links" transform="translate(-250.000000, -193.000000)">
            <g id="cnbc-1" transform="translate(250.000000, 192.000000)">
                <path d="M8.75132212,32.3790294 C8.56933739,31.5008899 7.84618756,31.2670375 7.03563717,31.1918707 C4.41960673,30.9508596 3.95626404,32.8980385 3.95626404,33.7201012 C3.95626404,35.1256017 4.36932148,36.288898 6.93626393,36.288898 C7.41038203,36.288898 8.71779862,35.8032963 8.71779862,35.0146411 L12.4113702,35.0146411 C12.2617117,37.354358 8.31192479,37.9151265 6.58905623,37.9151265 C3.02000051,37.9151265 -0.0366245273,37.2529424 0.111836697,33.7523156 C0.217196275,31.25272 2.58778679,29.4988272 7.30621972,29.6074016 C9.93542011,29.669444 12.4628527,30.484348 12.4724309,32.3790294 L8.75132212,32.3790294 L8.75132212,32.3790294 Z M45.7457041,32.3790294 C45.5649166,31.5008899 44.8405695,31.2670375 44.0312164,31.1918707 C41.4151859,30.9508596 40.9518432,32.8980385 40.9518432,33.7201012 C40.9518432,35.1256017 41.3637034,36.288898 43.9330404,36.288898 C44.4071585,36.288898 45.7133778,35.8032963 45.7133778,35.0146411 L49.4069494,35.0146411 C49.2572909,37.354358 45.3087013,37.9151265 43.5846354,37.9151265 C40.0155797,37.9151265 36.9601519,37.2529424 37.1074159,33.7523156 C37.2127755,31.25272 39.5845633,29.4988272 44.3029962,29.6074016 C46.9321966,29.669444 49.4584319,30.484348 49.4692073,32.3790294 L45.7457041,32.3790294 L45.7457041,32.3790294 Z M13.1333228,29.7756321 L17.9283808,29.7756321 L22.0194454,35.4871184 L22.0517716,35.4871184 L22.0517716,29.7756321 L25.1251584,29.7756321 L25.1251584,37.7063297 L20.5312413,37.7063297 L16.2390358,31.9936503 L16.2067096,31.9936503 L16.2067096,37.7063297 L13.1333228,37.7063297 L13.1333228,29.7756321 L13.1333228,29.7756321 Z M26.0745919,29.7756321 L31.8981031,29.7756321 C34.6973155,29.7756321 36.343559,30.5535492 36.343559,31.7299698 C36.343559,32.4243682 35.6539326,33.2822246 34.1178379,33.5351669 L34.1178379,33.5578363 C35.9676168,33.6676037 36.6500596,34.8320931 36.6500596,35.5300709 C36.6500596,36.9284126 35.0457205,37.7063297 31.9148649,37.7063297 L26.0745919,37.7063297 L26.0745919,29.7756321 L26.0745919,29.7756321 Z M29.4449011,32.8562792 L30.4110963,32.8562792 C31.8981031,32.8562792 32.6871027,32.7405461 32.6871027,32.1260871 C32.6871027,31.4662893 32.0298026,31.2479475 30.691257,31.2479475 L29.4437038,31.2479475 L29.4437038,32.8562792 L29.4449011,32.8562792 Z M29.4449011,36.0431143 L30.4110963,36.0431143 C32.2034064,36.0431143 32.8607065,35.8557938 32.8607065,35.2413348 C32.8607065,34.581537 32.0309999,34.3620021 30.6924543,34.3620021 L29.4449011,34.3620021 L29.4449011,36.0431143 L29.4449011,36.0431143 Z" id="Shape" fill="#000000" fill-rule="nonzero"></path>
                <path d="M43.0389303,28.8109598 C46.8113766,28.8109598 48.9067828,25.5085383 48.6743572,22.3956891 C48.3024762,18.3386009 44.6230002,16.7821763 42.6205643,17.1118147 C44.2964124,16.1687832 46.5324659,11.7337579 43.1330925,8.24297161 C40.4321879,5.64812562 36.9863294,6.59115713 35.7753324,7.72376092 C36.427316,5.55394321 35.3557744,1.07182674 30.9790216,0.364251236 C27.0218268,-0.107868254 25.2983016,2.67655001 24.7857733,3.99631114 C24.0396275,2.11024812 22.2231321,0.0817040221 18.8237587,0.364251236 C14.493491,0.836370725 13.1430387,5.03473252 13.7950223,7.53539611 C12.0714971,6.35570112 9.13816683,5.83649043 6.57671754,8.0546068 C3.2703144,11.402912 5.03913281,15.9321197 6.85682018,17.0176323 C4.85319233,16.8292675 1.68743648,18.1973273 0.988967753,21.782296 C0.24401391,26.2161138 3.59690217,28.8109598 6.85682018,28.8109598 L43.0389303,28.8109598 Z" id="Path"></path>
                <path d="M15.1484226,10.8874574 L21.8728143,26.4359598 L8.00037125,16.8313276 C4.51962292,14.5019731 5.22491978,10.5077507 7.15425573,8.74795623 C9.88156408,6.41860169 13.7378288,7.22669543 15.1484226,10.8874574 Z" id="Path" fill="#000000" fill-rule="nonzero"></path>
                <path d="M24.1410183,7.53388172 L21.7274093,24.8526265 L14.85617,8.38655647 C13.3706893,4.26973618 16.7124266,1.57242556 18.941836,1.52518932 C21.4956743,1.24056067 24.6983706,3.22811645 24.1410183,7.53388172 Z" id="Path" fill="#000000" fill-rule="nonzero"></path>
                <path d="M34.7293447,8.36426432 L27.9218016,24.8526265 L25.745474,9.97017154 C25.559372,7.70279501 26.9498035,7.65563358 27.4595098,7.22997142 C27.3670514,6.89863213 26.6724284,6.89863213 26.6724284,6.89863213 L25.3756406,6.89863213 C25.2369531,3.02413912 28.200362,1.32390903 30.6090209,1.51255476 C33.201411,1.60808689 36.1185908,4.67841703 34.7293447,8.36426432 L34.7293447,8.36426432 Z" id="Path" fill="#000000" fill-rule="nonzero"></path>
                <path d="M41.3574593,16.7378371 L27.7030382,26.4359598 L34.1363142,11.0060168 C36.0805142,6.13372493 40.6169809,7.08862077 42.2365552,8.95195145 C43.994747,10.7663758 44.5041961,14.4453535 41.3574593,16.7378371 Z" id="Path" fill="#000000" fill-rule="nonzero"></path>
                <path d="M42.8620592,28.0192931 L26.925675,28.0192931 L39.8714451,19.0152038 C43.0498698,16.9161203 46.4149087,18.828937 47.3025229,21.5811484 C48.237987,24.6605206 46.133791,28.0192931 42.8620592,28.0192931 Z" id="Path" fill="#000000" fill-rule="nonzero"></path>
                <path d="M1.8891606,21.5579216 C3.0959174,18.2739286 6.43706591,17.1145815 9.4064478,19.0946179 L22.2614959,28.4151265 L6.6686777,28.4151265 C3.4201739,28.4151265 0.868880981,25.323946 1.8891606,21.5579216 L1.8891606,21.5579216 Z" id="Path" fill="#000000" fill-rule="nonzero"></path>
            </g>
        </g>
    </g>
</svg>