<?xml version="1.0" encoding="UTF-8"?>
<svg width="78px" height="50px" viewBox="0 0 78 50" version="1.1" xmlns="http://www.w3.org/2000/svg" xmlns:xlink="http://www.w3.org/1999/xlink">
    <!-- Generator: Sketch 55 (78076) - https://sketchapp.com -->
    <title>iata-international-air-transport-association-seeklogo.com-3</title>
    <desc>Created with Sketch.</desc>
    <g id="Symbols" stroke="none" stroke-width="1" fill="none" fill-rule="evenodd" opacity="0.200000003">
        <g id="Block/Links" transform="translate(-520.000000, -1038.000000)" fill="#000000">
            <g id="Section/Logos/Tourism" transform="translate(250.000000, 1037.000000)">
                <path d="M310.199173,1.02038597 C312.720829,1.2688585 315.014695,2.29229351 316.839978,3.84901379 C316.546893,4.13353109 316.222785,4.4012078 315.871792,4.65027122 C315.234213,5.10230805 314.506818,5.4917097 313.710583,5.80429465 C312.831327,4.20798421 311.660759,2.61315102 310.199173,1.02038597 Z M281.344746,51 L284.236009,35.2008698 L289.399865,35.2008698 L286.508602,51 L281.344746,51 Z M296.618273,45.5944668 L299.804394,45.5944668 L299.231223,40.1227531 L296.618273,45.5944668 Z M289.102644,51 L297.553369,35.2008698 L302.695362,35.2008698 L305.363265,51 L300.331475,51 L300.120229,48.912358 L295.088143,48.912358 L294.094548,51 L289.102644,51 Z M310.403919,51 L312.535287,39.3536996 L307.986851,39.3536996 L308.746746,35.2008698 L322.920021,35.2008698 L322.159831,39.3536996 L317.611395,39.3536996 L315.480027,51 L310.403919,51 Z M327.907789,45.5944668 L331.094206,45.5944668 L330.520739,40.1227531 L327.907789,45.5944668 Z M320.392455,51 L328.843181,35.2008698 L333.984878,35.2008698 L336.653077,51 L331.620991,51 L331.409745,48.912358 L326.377659,48.912358 L325.384065,51 L320.392455,51 Z M348.017519,16.9326731 L323.443852,16.9326731 C323.157857,18.0270158 323.123585,19.0740868 322.616004,20.0585225 C320.713608,23.7483839 317.355241,26.5651938 313.3005,27.7499439 L313.3005,27.7505348 C314.598702,31.2752402 318.0785,31.932614 319.834648,32.0330666 L330.43565,32.0330666 C333.436525,32.0330666 334.547413,31.7045275 336.216994,28.8123781 L322.90318,28.8123781 L322.928884,28.7716062 C322.809523,28.7101528 322.727388,28.5854734 322.727388,28.4427715 C322.727388,28.2395027 322.893726,28.073165 323.096995,28.073165 L334.369257,28.073165 C337.370131,28.073165 338.480724,27.7446258 340.150601,24.8524765 L324.951528,24.8524765 C324.748259,24.8524765 324.581921,24.6861387 324.581921,24.4828699 C324.581921,24.279601 324.748259,24.1132633 324.951528,24.1132633 L338.302568,24.1132633 C341.303443,24.1132633 342.414331,23.7847241 344.083912,20.8925748 L326.80606,20.8925748 C326.602496,20.8925748 326.436158,20.726237 326.436158,20.5229682 C326.436158,20.3196994 326.602496,20.1533616 326.80606,20.1533616 L342.235879,20.1533616 C345.237049,20.1533616 346.347642,19.8248224 348.017519,16.9326731 Z M269.980304,16.9326731 L294.553971,16.9326731 C294.839671,18.0270158 294.874238,19.0740868 295.381819,20.0585225 C297.284215,23.7483839 300.642583,26.5651938 304.697323,27.7499439 L304.697028,27.7505348 C303.399121,31.2752402 299.919028,31.932614 298.163175,32.0330666 L287.562173,32.0330666 C284.561003,32.0330666 283.450411,31.7045275 281.780534,28.8123781 L295.094348,28.8123781 L295.068643,28.7716062 C295.1883,28.7101528 295.270435,28.5854734 295.270435,28.4427715 C295.270435,28.2395027 295.103802,28.073165 294.900533,28.073165 L283.628566,28.073165 C280.627692,28.073165 279.516804,27.7446258 277.847222,24.8524765 L293.046296,24.8524765 C293.249565,24.8524765 293.415902,24.6861387 293.415902,24.4828699 C293.415902,24.279601 293.249565,24.1132633 293.046296,24.1132633 L279.695255,24.1132633 C276.694381,24.1132633 275.583493,23.7847241 273.913616,20.8925748 L291.191763,20.8925748 C291.395032,20.8925748 291.56137,20.726237 291.56137,20.5229682 C291.56137,20.3196994 291.395032,20.1533616 291.191763,20.1533616 L275.761648,20.1533616 C272.760774,20.1533616 271.649886,19.8248224 269.980304,16.9326731 Z M317.311514,4.27209662 C319.566971,6.40819221 320.999898,9.4040441 321.085579,12.7352305 L315.700136,12.7352305 C315.649023,10.6091802 315.085011,8.48608436 314.007805,6.36594301 C314.826789,6.03858563 315.576934,5.63382063 316.237853,5.16494321 C316.627846,4.88869849 316.986816,4.59029509 317.311514,4.27209662 Z M321.085579,13.368673 C320.999898,16.6998594 319.566971,19.6954158 317.311514,21.8315114 C316.986816,21.5136084 316.627846,21.215205 316.237853,20.9386648 C315.576934,20.4700828 314.826789,20.0650224 314.007805,19.7379605 C315.084716,17.6175237 315.649023,15.4944278 315.700136,13.368673 L321.085579,13.368673 Z M316.839978,22.2548897 C315.014695,23.81161 312.720829,24.8347495 310.199173,25.0835175 C311.660759,23.490457 312.831327,21.8956238 313.710583,20.2993134 C314.506818,20.6118983 315.234213,21.0013 315.871792,21.4536322 C316.222785,21.7024002 316.546893,21.9703724 316.839978,22.2548897 Z M307.798355,25.0835175 C305.276699,24.8347495 302.983129,23.81161 301.157845,22.2548897 C301.450931,21.9703724 301.774743,21.7024002 302.126031,21.4536322 C302.76361,21.0013 303.49071,20.6118983 304.28724,20.2993134 C305.166792,21.8959193 306.337065,23.490457 307.798355,25.0835175 Z M300.686309,21.8315114 C298.430852,19.6954158 296.997629,16.6998594 296.911949,13.368673 L302.297687,13.368673 C302.348504,15.4944278 302.912812,17.6175237 303.990019,19.737665 C303.170739,20.0650224 302.420889,20.4700828 301.759675,20.9386648 C301.369978,21.215205 301.010712,21.5136084 300.686309,21.8315114 Z M296.911949,12.7352305 C296.997925,9.4040441 298.430852,6.40819221 300.686309,4.27209662 C301.010712,4.59029509 301.369978,4.88869849 301.759675,5.16494321 C302.420889,5.63382063 303.170739,6.03858563 303.990019,6.36594301 C302.912812,8.48608436 302.348504,10.6091802 302.297687,12.7352305 L296.911949,12.7352305 Z M301.157845,3.84901379 C302.983129,2.29229351 305.276994,1.2688585 307.798355,1.02038597 C306.337065,2.61315102 305.166496,4.20798421 304.28724,5.80429465 C303.49071,5.4917097 302.76361,5.10230805 302.126031,4.65027122 C301.774743,4.4012078 301.450931,4.13353109 301.157845,3.84901379 Z M313.409816,6.58693879 C312.162726,7.01120342 310.777071,7.26144865 309.315781,7.29306168 L309.315781,12.7352305 L315.066398,12.7352305 C315.014695,10.6886559 314.462205,8.63912689 313.409816,6.58693879 Z M308.682043,7.29306168 C307.220752,7.26144865 305.835097,7.01120342 304.587712,6.58693879 C303.535323,8.63912689 302.982833,10.6886559 302.931425,12.7352305 L308.682043,12.7352305 L308.682043,7.29306168 Z M304.890251,6.02204049 C306.046934,6.40346502 307.328887,6.62889254 308.682043,6.65932378 L308.682043,1 C307.086028,2.67578619 305.822097,4.34979969 304.890251,6.02204049 Z M309.315781,6.65932378 C310.668641,6.62889254 311.950889,6.40346502 313.107572,6.02204049 C312.175726,4.34979969 310.911796,2.67578619 309.315781,1 L309.315781,6.65932378 Z M309.315781,18.8108418 C310.777071,18.8424548 312.162726,19.0927 313.409816,19.5169647 C314.462205,17.4644811 315.014695,15.4152475 315.066398,13.368673 L309.315781,13.368673 L309.315781,18.8108418 Z M304.587712,19.5169647 C305.835097,19.0924046 307.220752,18.8424548 308.682043,18.8108418 L308.682043,13.368673 L302.931425,13.368673 C302.982833,15.4152475 303.535323,17.4644811 304.587712,19.5169647 Z M313.107572,20.081863 C311.950889,19.700143 310.668641,19.4750109 309.315781,19.4445797 L309.315781,25.1039035 C310.911796,23.4281173 312.175726,21.7541038 313.107572,20.081863 Z M308.682043,19.4445797 C307.328887,19.4750109 306.046934,19.700143 304.890251,20.081863 C305.822097,21.7541038 307.086028,23.4281173 308.682043,25.1039035 L308.682043,19.4445797 L308.682043,19.4445797 Z" id="iata-international-air-transport-association-seeklogo.com-3"></path>
            </g>
        </g>
    </g>
</svg>