<?xml version="1.0" encoding="UTF-8"?>
<svg width="272px" height="38px" viewBox="0 0 272 38" version="1.1" xmlns="http://www.w3.org/2000/svg" xmlns:xlink="http://www.w3.org/1999/xlink">
    <!-- Generator: Sketch 55 (78076) - https://sketchapp.com -->
    <title>thomson-reuters</title>
    <desc>Created with Sketch.</desc>
    <g id="Symbols" stroke="none" stroke-width="1" fill="none" fill-rule="evenodd">
        <g id="Block/Links" transform="translate(-751.000000, -192.000000)" fill="#000000" fill-rule="nonzero">
            <g id="thomson-reuters" transform="translate(751.000000, 192.000000)">
                <path d="M67.0857361,13.4878889 L67.0857361,11.7979444 C67.0857361,11.5599167 66.8911234,11.3910278 66.6642485,11.3910278 L55.2924089,11.3910278 C55.0650138,11.3910278 54.8756045,11.5599167 54.8756045,11.7979444 L54.8756045,13.4878889 C54.8756045,13.7253889 55.0650138,13.87475 55.2924089,13.87475 L59.5150903,13.87475 L59.5150903,26.1777778 C59.5150903,26.4105278 59.7024181,26.6058056 59.9370983,26.6058056 L62.0226814,26.6058056 C62.1349173,26.6063678 62.242739,26.5615036 62.3222491,26.4811565 C62.4017592,26.4008094 62.4463903,26.291616 62.4462504,26.1777778 L62.4462504,13.87475 L66.6642485,13.87475 C66.8911234,13.87475 67.0857361,13.7253889 67.0857361,13.4878889 Z M82.3316192,26.1777778 L82.3316192,11.7979444 C82.3316192,11.5599167 82.1318029,11.3910278 81.9054484,11.3910278 L79.8172635,11.3910278 C79.580502,11.3910278 79.3858892,11.5599167 79.3858892,11.7979444 L79.3858892,17.3559722 L72.6982859,17.3559722 L72.6982859,11.7979444 C72.6982859,11.5599167 72.5088766,11.3910278 72.2814815,11.3910278 L70.1839302,11.3910278 C69.9492501,11.3910278 69.7598408,11.5599167 69.7598408,11.7979444 L69.7598408,26.1777778 C69.7598408,26.4105278 69.9492501,26.6058056 70.1839302,26.6058056 L72.2814815,26.6058056 C72.5122781,26.6023506 72.6977432,26.4118914 72.6982859,26.1777778 L72.6982859,19.969 L79.3858892,19.969 L79.3858892,26.1777778 C79.3858892,26.4105278 79.580502,26.6058056 79.8172635,26.6058056 L81.9054484,26.6058056 C82.1377166,26.6021985 82.3257832,26.4133124 82.3316192,26.1777778 L82.3316192,26.1777778 Z M99.0860116,20.0903889 L99.0860116,17.9022222 C99.0860116,13.1891667 95.8587695,11.2184444 92.3713499,11.2184444 C88.8870523,11.2184444 85.6613713,13.1891667 85.6613713,17.9022222 L85.6613713,20.0903889 C85.6613713,24.8034444 88.886532,26.7741667 92.3713499,26.7741667 C95.8587695,26.7741667 99.0860116,24.8034444 99.0860116,20.0903889 Z M96.1231099,20.0903889 C96.1231099,22.91875 94.4465259,24.1859444 92.3713499,24.1859444 C90.3008571,24.1859444 88.6175084,22.9192778 88.6175084,20.0903889 L88.6175084,17.9022222 C88.6175084,15.0743889 90.3008571,13.8061389 92.3713499,13.8061389 C94.4465259,13.8061389 96.1231099,15.0738611 96.1231099,17.9022222 L96.1231099,20.0903889 Z M117.647077,26.2870278 L117.647077,12.2428611 C117.647077,11.7720833 117.27034,11.3905 116.804102,11.3905 L115.07288,11.3905 C114.733609,11.3905 114.436486,11.5979167 114.284542,11.89875 L110.23618,20.273 C110.13419,20.4645833 110.086838,20.5690833 110.007224,20.5690833 C109.919804,20.5690833 109.874533,20.4651111 109.773064,20.273 L105.719498,11.89875 C105.569636,11.5979167 105.273033,11.3905 104.936364,11.3905 L103.202541,11.3905 C102.736302,11.3905 102.362167,11.7726111 102.362167,12.2428611 L102.362167,26.2865 C102.362167,26.4955 102.531803,26.6052778 102.720692,26.6052778 L104.854148,26.6052778 C105.03367,26.6052778 105.190297,26.3899444 105.190297,26.17725 L105.190297,16.9105278 C105.190297,16.7643333 105.212672,16.70575 105.255341,16.70575 C105.272513,16.70575 105.317264,16.7638056 105.359933,16.8266111 L108.790113,24.4846667 C108.919161,24.7195278 109.191307,24.8535833 109.462932,24.8535833 L110.565565,24.8535833 C110.835109,24.8535833 111.109336,24.7195278 111.234221,24.4846667 L114.64671,16.8266111 C114.694062,16.7638056 114.733609,16.70575 114.748699,16.70575 C114.798653,16.70575 114.818947,16.7638056 114.818947,16.9105278 L114.818947,26.1777778 C114.818947,26.3899444 114.965687,26.6058056 115.155096,26.6058056 L117.290634,26.6058056 C117.480043,26.6052778 117.647077,26.4960278 117.647077,26.2870278 Z M164.538874,25.7444722 L164.538874,11.7979444 C164.538874,11.5599167 164.364034,11.3910278 164.124671,11.3910278 L162.308632,11.3910278 C162.201679,11.3885249 162.098403,11.430663 162.022953,11.5075883 C161.947503,11.5845136 161.906496,11.6894808 161.909519,11.7979444 L161.909519,22.363 C161.909519,22.4917778 161.849679,22.5630278 161.810132,22.5630278 C161.739884,22.5630278 161.680043,22.4917778 161.640496,22.3856944 L155.683991,12.0766111 C155.429538,11.5171667 155.195378,11.3910278 154.745791,11.3910278 L152.466116,11.3910278 C152.007163,11.3910278 151.628344,11.7731389 151.628344,12.2433889 L151.628344,26.1777778 C151.628344,26.4105278 151.81255,26.6058056 152.04723,26.6058056 L153.842975,26.6058056 C154.077655,26.6058056 154.242608,26.4110556 154.242608,26.1777778 L154.242608,16.0961667 C154.242608,15.9747778 154.282155,15.9315 154.347199,15.9315 C154.412244,15.9315 154.471564,15.97425 154.536609,16.0961667 L160.273523,25.8363056 C160.602908,26.6052778 161.046771,26.6052778 161.555678,26.6052778 L163.691215,26.6052778 C164.154852,26.6052778 164.538874,26.2210556 164.538874,25.7444722 L164.538874,25.7444722 Z M132.271656,22.3139167 C132.271656,20.2524167 131.113866,19.19 129.328007,18.4585 C127.926171,17.8869167 126.69397,17.4008333 125.75629,17.0292778 C124.823294,16.6471667 124.025589,15.9969444 124.025589,15.2960556 C124.025589,14.3349722 125.202632,13.7728889 126.754331,13.7728889 C128.600031,13.7728889 130.046618,14.03625 131.443771,14.1650278 L131.488522,14.1650278 C131.693021,14.1650278 131.847567,13.9855833 131.847567,13.7728889 L131.847567,12.1921944 C131.847567,11.9795 131.673248,11.8301389 131.463545,11.7868611 C130.750138,11.6121667 128.899235,11.2205556 126.888583,11.2205556 C122.962504,11.2205556 121.091827,12.9358333 121.091827,15.2960556 C121.091827,16.7938889 121.74019,18.2716667 123.58641,19.0406389 C125.432109,19.8101389 129.203642,20.6999722 129.203642,22.3139167 C129.203642,23.5489167 128.634374,24.2345 126.754331,24.2345 C124.798316,24.2345 122.818365,23.9510833 121.979553,23.845 L121.934803,23.845 C121.712857,23.8464531 121.534017,24.0299702 121.53517,24.2550833 L121.53517,25.7983056 C121.53517,26.0331667 121.725099,26.1809444 121.934803,26.2210556 C122.947414,26.4611944 124.843587,26.7847222 126.70906,26.7847222 C130.934343,26.7847222 132.271656,24.4725278 132.271656,22.3139167 L132.271656,22.3139167 Z M148.355311,20.0903889 L148.355311,17.9022222 C148.355311,13.1891667 145.122865,11.2184444 141.640649,11.2184444 C138.158953,11.2184444 134.93067,13.1891667 134.93067,17.9022222 L134.93067,20.0903889 C134.93067,24.8034444 138.158433,26.7741667 141.640649,26.7741667 C145.122865,26.7741667 148.355311,24.8034444 148.355311,20.0903889 Z M145.397092,20.0903889 C145.397092,22.91875 143.710621,24.1859444 141.640129,24.1859444 C139.569636,24.1859444 137.883685,22.9192778 137.883685,20.0903889 L137.883685,17.9022222 C137.883685,15.0743889 139.569636,13.8061389 141.640129,13.8061389 C143.710621,13.8061389 145.397092,15.0738611 145.397092,17.9022222 L145.397092,20.0903889 Z M186.693511,26.3519444 C186.693511,26.3044444 186.693511,26.2405833 186.64876,26.1777778 L183.33618,20.4476944 C185.067401,19.7673889 186.185124,18.5176111 186.185124,16.2534444 L186.185124,16.0613333 C186.185124,12.3953889 183.176951,11.2189722 179.929415,11.2189722 C178.388124,11.2189722 176.02311,11.3250556 174.920998,11.4923611 C174.496908,11.5604444 174.247138,11.7071667 174.247138,12.1351944 L174.247138,26.1777778 C174.247138,26.4105278 174.441751,26.6058056 174.671227,26.6058056 L176.781267,26.6058056 C177.010744,26.6058056 177.185583,26.4110556 177.185583,26.1777778 L177.185583,20.8947222 C177.66431,20.9205833 179.375237,20.9812778 179.928895,20.9812778 L180.397735,20.9812778 L183.441292,26.1777778 C183.545883,26.3899444 183.625497,26.6058056 183.854974,26.6058056 L186.439578,26.6058056 C186.609213,26.6052778 186.693511,26.4960278 186.693511,26.3519444 Z M183.271656,16.2529167 C183.271656,18.14025 182.099296,18.5651111 179.928895,18.5651111 C179.565167,18.5651111 177.514448,18.5170833 177.185583,18.4970278 L177.185583,13.8520556 C177.559718,13.8061389 179.485032,13.7686667 179.928895,13.7686667 C182.039455,13.7686667 183.271656,14.45425 183.271656,16.0608056 L183.271656,16.2529167 L183.271656,16.2529167 Z M192.325834,19.969 L199.085767,19.969 C199.3164,19.967351 199.503997,19.7801161 199.509336,19.54625 L199.509336,18.0009167 C199.507626,17.7646282 199.318737,17.5737502 199.085767,17.5728889 L192.325834,17.5728889 L192.325834,15.6095556 C192.325834,13.8135278 192.396082,13.7681389 193.986807,13.7681389 L199.330334,13.7681389 C199.569697,13.7681389 199.76431,13.5681111 199.76431,13.3353611 L199.76431,11.9647222 C199.76431,11.6638889 199.649311,11.5593889 199.330334,11.5166389 C198.661677,11.4131944 197.289501,11.2184444 194.775145,11.2184444 C191.268473,11.2184444 189.407683,11.1931111 189.407683,15.6100833 L189.407683,22.3851667 C189.407683,26.79475 191.268473,26.7741667 194.775145,26.7741667 C197.289501,26.7741667 198.661677,26.5825833 199.330334,26.4765 C199.649311,26.4353333 199.76431,26.3324167 199.76431,26.0231389 L199.76431,24.6551389 C199.76431,24.4239722 199.569697,24.2323889 199.330334,24.2323889 L193.986807,24.2323889 C192.395562,24.2323889 192.325834,24.1859444 192.325834,22.3851667 L192.325834,19.969 L192.325834,19.969 Z M215.583624,20.7131667 L215.583624,11.7979444 C215.583624,11.5599167 215.389532,11.3910278 215.149648,11.3910278 L213.064585,11.3910278 C212.829905,11.3910278 212.640496,11.5599167 212.640496,11.7979444 L212.640496,20.7136944 C212.640496,23.1578333 211.53318,24.3131389 209.247781,24.3131389 C206.968105,24.3131389 205.850903,23.1578333 205.850903,20.7136944 L205.850903,11.7979444 C205.850903,11.5599167 205.67086,11.3910278 205.431497,11.3910278 L203.34123,11.3910278 C203.111754,11.3910278 202.921824,11.5599167 202.921824,11.7979444 L202.921824,20.7136944 C202.921824,25.2768611 205.845179,26.7746944 209.24726,26.7746944 C212.650383,26.7741667 215.583624,25.2768611 215.583624,20.7131667 Z M229.886624,13.4878889 L229.886624,11.7979444 C229.886624,11.5599167 229.692011,11.3910278 229.467218,11.3910278 L218.097459,11.3910278 C217.868503,11.3910278 217.678574,11.5599167 217.678574,11.7979444 L217.678574,13.4878889 C217.678574,13.7253889 217.867983,13.87475 218.097459,13.87475 L222.313376,13.87475 L222.313376,26.1777778 C222.313376,26.4105278 222.502785,26.6058056 222.732782,26.6058056 L224.827732,26.6058056 C225.060121,26.6035324 225.248202,26.4134723 225.251301,26.1777778 L225.251301,13.87475 L229.467218,13.87475 C229.692011,13.87475 229.886624,13.7253889 229.886624,13.4878889 L229.886624,13.4878889 Z M258.407285,26.3519444 C258.407285,26.3044444 258.407285,26.2405833 258.367738,26.1777778 L255.044751,20.4476944 C256.781175,19.7673889 257.898378,18.5176111 257.898378,16.2534444 L257.898378,16.0613333 C257.898378,12.3953889 254.900092,11.2189722 251.637466,11.2189722 C250.096174,11.2189722 247.736364,11.3250556 246.638935,11.4923611 C246.215366,11.5604444 245.960392,11.7071667 245.960392,12.1351944 L245.960392,26.1777778 C245.960392,26.4105278 246.155005,26.6058056 246.384481,26.6058056 L248.494521,26.6058056 C248.729201,26.6058056 248.894154,26.4110556 248.894154,26.1777778 L248.894154,20.8947222 C249.382767,20.9205833 251.089011,20.9812778 251.637466,20.9812778 L252.111509,20.9812778 L255.154545,26.1777778 C255.259657,26.3899444 255.339272,26.6058056 255.573952,26.6058056 L258.153352,26.6058056 C258.322467,26.6052778 258.407285,26.4960278 258.407285,26.3519444 L258.407285,26.3519444 Z M254.98491,16.2529167 C254.98491,18.14025 253.817233,18.5651111 251.636945,18.5651111 C251.282583,18.5651111 249.237588,18.5170833 248.893633,18.4970278 L248.893633,13.8520556 C249.277655,13.8061389 251.198286,13.7686667 251.636945,13.7686667 C253.757392,13.7686667 254.98491,14.45425 254.98491,16.0608056 L254.98491,16.2529167 L254.98491,16.2529167 Z M271.770523,22.3139167 C271.770523,20.2524167 270.618457,19.19 268.842485,18.4585 C267.650614,17.9765157 266.45656,17.5001032 265.260361,17.0292778 C264.322161,16.6471667 263.534343,15.9969444 263.534343,15.2960556 C263.534343,14.3349722 264.706703,13.7728889 266.273493,13.7728889 C268.108785,13.7728889 269.556413,14.03625 270.947842,14.1650278 L270.992593,14.1650278 C271.201775,14.1650278 271.351638,13.9855833 271.351638,13.7728889 L271.351638,12.1921944 C271.351638,11.9795 271.182002,11.8301389 270.967616,11.7868611 C270.249005,11.6121667 268.408509,11.2205556 266.392654,11.2205556 C262.466575,11.2205556 260.592256,12.9358333 260.592256,15.2960556 C260.592256,16.7938889 261.244781,18.2716667 263.085277,19.0406389 C264.931497,19.8101389 268.712397,20.6999722 268.712397,22.3139167 C268.712397,23.5489167 268.134282,24.2345 266.257882,24.2345 C264.307591,24.2345 262.326599,23.9510833 261.478421,23.845 L261.43367,23.845 C261.213115,23.8495659 261.036202,24.0313416 261.034558,24.2550833 L261.034558,25.7983056 C261.034558,26.0331667 261.233854,26.1809444 261.43367,26.2210556 C262.451485,26.4611944 264.347138,26.7847222 266.213131,26.7847222 C270.438935,26.7847222 271.770523,24.4725278 271.770523,22.3139167 L271.770523,22.3139167 Z M234.979859,19.969 L241.734588,19.969 C241.845534,19.9697034 241.952166,19.9254576 242.030814,19.8460849 C242.109461,19.7667122 242.153615,19.6587805 242.153474,19.54625 L242.153474,18.0009167 C242.155593,17.8873024 242.112244,17.7776635 242.033316,17.6970139 C241.954389,17.6163643 241.846617,17.5715838 241.734588,17.5728889 L234.979859,17.5728889 L234.979859,15.6095556 C234.979859,13.8135278 235.044904,13.7681389 236.646036,13.7681389 L241.993725,13.7681389 C242.226057,13.7629926 242.412059,13.5710609 242.413131,13.3353611 L242.413131,11.9647222 C242.413131,11.6638889 242.30854,11.5593889 241.993725,11.5166389 C241.310499,11.4131944 239.938843,11.2184444 237.424487,11.2184444 C233.917294,11.2184444 232.061188,11.1931111 232.061188,15.6100833 L232.061188,22.3851667 C232.061188,26.79475 233.916774,26.7741667 237.424487,26.7741667 C239.938843,26.7741667 241.310499,26.5825833 241.993725,26.4765 C242.30802,26.4353333 242.413131,26.3324167 242.413131,26.0231389 L242.413131,24.6551389 C242.411136,24.421475 242.224111,24.2329585 241.993725,24.2323889 L236.646036,24.2323889 C235.044904,24.2323889 234.979859,24.1859444 234.979859,22.3851667 L234.979859,19.969 L234.979859,19.969 Z" id="Shape"></path>
                <path d="M17.8674319,13.4372222 C18.0703704,13.8209167 17.9324763,14.30225 17.5526171,14.5101944 C17.1710865,14.7178846 16.6957986,14.5728627 16.4905724,14.1861389 C16.2824304,13.8029722 16.4260484,13.3205833 16.8048669,13.1136944 C16.9879121,13.0128773 17.2030619,12.9903386 17.4025592,13.0510811 C17.6020564,13.1118237 17.7693955,13.2508219 17.8674319,13.4372222 L17.8674319,13.4372222 Z M14.0017141,19.6449444 C13.7797264,19.7700979 13.6977348,20.0527049 13.8175084,20.2798611 C13.874912,20.3890731 13.9733518,20.4701573 14.0905145,20.5047345 C14.2076773,20.5393116 14.3336408,20.5244534 14.4398531,20.4635278 C14.5486417,20.4067397 14.6300245,20.3075715 14.6653438,20.1887582 C14.7006631,20.0699449 14.6868895,19.941677 14.6271809,19.8333611 C14.5049152,19.6072102 14.2258681,19.5231496 14.0017141,19.6449444 L14.0017141,19.6449444 Z M13.9236609,17.7365 C13.6660049,17.8797924 13.5701452,18.2067862 13.7087542,18.4695833 C13.8528926,18.7376944 14.1765534,18.8342778 14.438292,18.6928333 C14.6969085,18.5492778 14.7957759,18.2141389 14.6558004,17.9539444 C14.5878237,17.8259307 14.4721184,17.7308725 14.3345403,17.690012 C14.1969623,17.6491515 14.0489796,17.6658947 13.9236609,17.7365 L13.9236609,17.7365 Z M14.4117539,15.8998333 C14.1149174,16.0638311 14.0025927,16.4389679 14.1593817,16.7426944 C14.3232935,17.043 14.6953474,17.1591111 14.9919498,16.9949722 C15.1358684,16.9169818 15.243262,16.784097 15.2904178,16.6256588 C15.3375737,16.4672207 15.3206132,16.296261 15.2432813,16.1505278 C15.0801449,15.8506266 14.7099139,15.7390069 14.4117539,15.8998333 L14.4117539,15.8998333 Z M15.4077135,14.3112222 C15.2448186,14.3988074 15.1233312,14.5489595 15.0704252,14.7280931 C15.0175191,14.9072268 15.0376091,15.1003943 15.1262014,15.2643889 C15.3083257,15.6016389 15.7214876,15.7298889 16.0565963,15.5456944 C16.2189794,15.4592788 16.340479,15.3105046 16.393961,15.1325972 C16.447443,14.9546897 16.4284525,14.7624683 16.3412305,14.5988611 C16.255537,14.4346598 16.1087725,14.3119401 15.9335084,14.257937 C15.7582442,14.2039339 15.5689781,14.2231146 15.4077135,14.3112222 L15.4077135,14.3112222 Z M14.6453933,21.4520556 C14.5551265,21.5013196 14.4879513,21.585055 14.4587477,21.6847135 C14.4295441,21.784372 14.4407227,21.8917275 14.4898072,21.983 C14.5926983,22.1708753 14.824596,22.2411559 15.0122436,22.1413333 C15.1973402,22.0356347 15.2650993,21.7991999 15.1647077,21.6093333 C15.0628671,21.4220252 14.8318182,21.3520505 14.6453933,21.4520556 L14.6453933,21.4520556 Z M23.5403428,14.953 C23.6638829,15.1789238 23.9421423,15.2642705 24.1684114,15.1456389 C24.3914626,15.0201731 24.4745102,14.7367396 24.3552189,14.5080833 C24.2975883,14.3988402 24.1993116,14.3174806 24.0822433,14.282097 C23.965175,14.2467134 23.8390204,14.2602392 23.7318335,14.3196667 C23.6235819,14.3778413 23.5425737,14.4772796 23.5066557,14.5960745 C23.4707376,14.7148694 23.4828566,14.8432741 23.5403428,14.953 L23.5403428,14.953 Z M21.9777166,13.9444167 C22.1187328,14.2093611 22.4507193,14.3059444 22.7036119,14.1618611 C22.970554,14.0183056 23.065779,13.6889722 22.9232017,13.4250833 C22.7835188,13.1614666 22.4602995,13.0615386 22.1993878,13.2013056 C21.9379507,13.3461572 21.8393011,13.6768612 21.9777166,13.9444167 L21.9777166,13.9444167 Z M20.1720845,13.4535833 C20.2481381,13.5984544 20.3782276,13.7063978 20.5332978,13.7533048 C20.6883681,13.8002119 20.8555008,13.7821748 20.9973676,13.7032222 C21.141359,13.6257257 21.2489508,13.4932064 21.2963191,13.335008 C21.3436874,13.1768096 21.3269236,13.0059854 21.2497398,12.8603611 C21.1731015,12.7148169 21.0420914,12.6065473 20.8860714,12.5598177 C20.7300514,12.5130882 20.5620694,12.5318066 20.4197735,12.6117778 C20.2766626,12.689889 20.1701004,12.8225749 20.1236256,12.9805261 C20.0771507,13.1384773 20.0945876,13.3086964 20.1720845,13.4535833 L20.1720845,13.4535833 Z M18.2868381,13.5290556 C18.3733623,13.6933931 18.5207485,13.8161029 18.6965298,13.8701538 C18.8723112,13.9242047 19.0620671,13.9051626 19.2239976,13.8172222 C19.5579431,13.6302255 19.6817521,13.2057626 19.5018672,12.8645833 C19.3148956,12.536934 18.9050606,12.4192867 18.576526,12.5989549 C18.2479914,12.7786231 18.1196882,13.1905662 18.2868381,13.5290556 Z M24.7142639,16.3816944 C24.8131313,16.5711667 25.0472911,16.6397778 25.2283747,16.5384444 C25.3183958,16.4910358 25.3857655,16.4088122 25.4152443,16.310373 C25.444723,16.2119339 25.43382,16.1055971 25.3850015,16.0154167 C25.28506,15.8249371 25.0528517,15.7511312 24.8636058,15.8496944 C24.685124,15.9547222 24.6107132,16.1964444 24.7142639,16.3816944 L24.7142639,16.3816944 Z M23.3873584,23.8064722 C23.2897568,23.6190652 23.1220106,23.4792899 22.9218097,23.4185515 C22.7216088,23.3578131 22.5057423,23.3812053 22.322712,23.4834722 C22.1396968,23.5825715 22.0034732,23.7519302 21.9445054,23.9536738 C21.8855376,24.1554175 21.9087451,24.3727154 22.0089379,24.5569722 C22.2149985,24.9411944 22.690603,25.0815833 23.0715029,24.8789167 C23.449801,24.66675 23.5908173,24.1827778 23.3873584,23.8064722 Z M16.3334252,23.0369722 C16.2112698,22.8129309 15.9347231,22.7293702 15.7116009,22.8490833 C15.6042717,22.9073554 15.5242379,23.0065771 15.4891849,23.1248232 C15.4541318,23.2430694 15.4669451,23.3706056 15.5247934,23.47925 C15.5814393,23.58908 15.6795466,23.6709413 15.7967201,23.7061472 C15.9138936,23.7413532 16.0401317,23.7268987 16.1466177,23.6660833 C16.2537723,23.6079146 16.3336958,23.5088824 16.3687446,23.3908489 C16.4037933,23.2728154 16.391085,23.1454869 16.3334252,23.0369722 L16.3334252,23.0369722 Z M17.8981328,24.0460833 C17.7565861,23.7831354 17.4321059,23.6857004 17.1722375,23.8281111 C17.0458568,23.8953422 16.9515673,24.0114494 16.9107219,24.1501388 C16.8698766,24.2888282 16.885931,24.4383665 16.9552495,24.5648889 C17.0905418,24.8303611 17.4188858,24.9316944 17.6790634,24.7891944 C17.939304,24.6432347 18.0366636,24.3129789 17.8981328,24.0460833 L17.8981328,24.0460833 Z M19.7079278,24.5369167 C19.5502602,24.2355556 19.1740435,24.1284167 18.8722375,24.2846389 C18.5760587,24.4499337 18.465719,24.8258789 18.6245485,25.1285556 C18.78794,25.4330833 19.1599939,25.5455 19.457637,25.3829444 C19.6025234,25.3055101 19.7106524,25.17227 19.7577204,25.0131717 C19.8047884,24.8540734 19.7868467,24.6824645 19.7079278,24.5369167 L19.7079278,24.5369167 Z M21.5905724,24.4603889 C21.4081235,24.1203799 20.9892645,23.9935427 20.6528926,24.1764444 C20.3157025,24.3574722 20.1986226,24.7812778 20.3817876,25.1259167 C20.4665638,25.2899431 20.6131162,25.412243 20.7881375,25.4650213 C20.9631589,25.5177997 21.1517832,25.4965734 21.3111417,25.4061667 C21.6493725,25.2267222 21.7695745,24.7986944 21.5905724,24.4603889 Z M25.867891,18.3518889 C26.0942455,18.2199444 26.1806244,17.9349444 26.0625038,17.7116944 C26.0044768,17.6029986 25.9062518,17.522137 25.78944,17.4869004 C25.6726282,17.4516638 25.5467997,17.4649391 25.4396388,17.5238056 C25.3306062,17.5814707 25.2491315,17.6813243 25.2136719,17.8007456 C25.1782122,17.9201668 25.1917687,18.0490487 25.2512703,18.1581944 C25.3705255,18.3822805 25.6446392,18.4683858 25.867891,18.3518889 L25.867891,18.3518889 Z M25.95427,20.2571667 C26.2154882,20.1130833 26.3091521,19.7821667 26.1670952,19.5193333 C26.1001627,19.3923721 25.9860941,19.297709 25.8501445,19.2563027 C25.7141948,19.2148964 25.56758,19.2301629 25.4427609,19.2987222 C25.1825448,19.4441015 25.0845406,19.773723 25.2221304,20.0407778 C25.3605448,20.3009722 25.6966942,20.3970278 25.95427,20.2571667 L25.95427,20.2571667 Z M25.4625344,22.09225 C25.7674625,21.926 25.8736149,21.5523333 25.7180288,21.24675 C25.5561542,20.9444204 25.1839244,20.8314651 24.8849403,20.9939444 C24.5864274,21.1590093 24.474564,21.5370491 24.6341292,21.8415556 C24.7962279,22.1408075 25.1652675,22.2524874 25.4625344,22.09225 L25.4625344,22.09225 Z M24.4733395,23.674 C24.8084481,23.4977222 24.9322926,23.0654722 24.7506887,22.7282222 C24.566483,22.3893889 24.150199,22.2579722 23.8166514,22.4448056 C23.6555287,22.5330612 23.5356031,22.6826586 23.4832892,22.8606478 C23.4309753,23.0386369 23.4505641,23.2304181 23.537741,23.39375 C23.6239688,23.5579865 23.7716501,23.6801887 23.947592,23.7328905 C24.1235339,23.7855923 24.3129761,23.7643723 24.4733395,23.674 L24.4733395,23.674 Z" id="Shape"></path>
                <path d="M23.1479951,11.5414444 C23.0725761,11.8004687 22.898575,12.0183746 22.6644362,12.1470171 C22.4302975,12.2756596 22.1552931,12.3044502 21.9001837,12.2270278 C21.6432558,12.1517789 21.426635,11.9755019 21.2985163,11.7374157 C21.1703977,11.4993296 21.1414084,11.2191834 21.2179982,10.9593056 C21.3205247,10.6096269 21.5991909,10.341988 21.9490257,10.2572059 C22.2988606,10.1724238 22.6667159,10.2833788 22.9140242,10.5482753 C23.1613325,10.8131719 23.2505217,11.1917658 23.1479951,11.5414444 L23.1479951,11.5414444 Z M13.4990511,13.9518056 C13.2350586,13.877295 12.9606729,14.0300318 12.8808693,14.2959167 C12.8148736,14.5589495 12.9660838,14.827754 13.2229161,14.903969 C13.4797484,14.980184 13.7499637,14.8364375 13.8341598,14.5788056 C13.9163759,14.3133333 13.7602694,14.0341389 13.4990511,13.9518056 L13.4990511,13.9518056 Z M15.2448424,12.0043056 C15.0888191,11.9576628 14.9208983,11.9760567 14.7782912,12.0554113 C14.6356842,12.1347659 14.5301676,12.2685278 14.485124,12.4270556 C14.4385864,12.5853736 14.4562546,12.7559815 14.5342096,12.9010367 C14.6121645,13.0460919 14.7439618,13.1536027 14.9003673,13.1997222 C15.2256733,13.2951775 15.5660033,13.1066807 15.6626875,12.7775 C15.7560706,12.4471524 15.5696375,12.1021704 15.2448424,12.0043056 L15.2448424,12.0043056 Z M17.4818488,10.6315556 C17.0687705,10.510595 16.636549,10.7488386 16.5119069,11.1661944 C16.3928094,11.585783 16.6301855,12.0241543 17.0431895,12.1473333 C17.2413772,12.2073948 17.4550105,12.1846442 17.6365767,12.0841413 C17.8181429,11.9836384 17.9525874,11.8137165 18.0100092,11.6121667 C18.1266046,11.1939575 17.8918041,10.7580141 17.4818488,10.6315556 L17.4818488,10.6315556 Z M19.9592593,10.0694722 C19.7360246,10.0016747 19.4953413,10.0270815 19.2906556,10.1400506 C19.0859699,10.2530197 18.9342242,10.4442003 18.8691154,10.6711389 C18.8027307,10.8972753 18.8279481,11.1409223 18.9391857,11.3481467 C19.0504233,11.555371 19.2385058,11.7090804 19.4617998,11.77525 C19.9256287,11.91269 20.4118046,11.6443206 20.5498623,11.1746389 C20.6170835,10.9486407 20.5925098,10.7047706 20.4816036,10.4972372 C20.3706974,10.2897039 20.1826492,10.135705 19.9592593,10.0694722 L19.9592593,10.0694722 Z M12.395378,16.3626944 C12.301599,16.3344484 12.2005856,16.3453057 12.1147263,16.3928601 C12.0288671,16.4404145 11.9652539,16.520738 11.9379859,16.6160278 C11.9093182,16.711981 11.9194216,16.8155562 11.9660718,16.9039514 C12.012722,16.9923465 12.0920946,17.0583148 12.1867156,17.0873333 C12.3854913,17.1453889 12.5905112,17.0292778 12.6482706,16.8297778 C12.6760843,16.7338208 12.6650345,16.6305767 12.6175682,16.5429081 C12.5701019,16.4552396 12.4901358,16.3903808 12.395378,16.3626944 L12.395378,16.3626944 Z M27.4268748,18.6289722 C27.3891078,18.7573387 27.4035572,18.8956959 27.4670006,19.0131887 C27.530444,19.1306815 27.6376049,19.2175383 27.7645852,19.2543889 C28.0278291,19.3329437 28.3040161,19.1801795 28.3814662,18.9131806 C28.4589162,18.6461816 28.3083005,18.3660548 28.0450566,18.2875 C27.7814626,18.2094206 27.5052035,18.362021 27.4268748,18.6289722 L27.4268748,18.6289722 Z M26.8524028,16.1088333 C26.8053975,16.2676433 26.822941,16.4389226 26.9011278,16.5845412 C26.9793146,16.7301597 27.1116548,16.8380303 27.2686869,16.8841389 C27.5965106,16.9823056 27.9347414,16.7923056 28.0304867,16.4619167 C28.126232,16.1315278 27.941506,15.7868889 27.6162841,15.6918889 C27.4604738,15.6443204 27.2924096,15.6615373 27.1491244,15.7397458 C27.0058391,15.8179543 26.8990913,15.9507363 26.8524028,16.1088333 L26.8524028,16.1088333 Z M25.4994796,13.8420278 C25.4212136,14.1128897 25.4913637,14.4055264 25.6835049,14.6097046 C25.8756461,14.8138828 26.1605878,14.8985828 26.430995,14.8318991 C26.7014022,14.7652153 26.9161938,14.5572786 26.9944597,14.2864167 C27.0532649,14.0856781 27.0304769,13.8694233 26.9311718,13.6858245 C26.8318668,13.5022256 26.6642931,13.3665327 26.465779,13.3089722 C26.0541176,13.1883988 25.623397,13.4260043 25.4994796,13.8420278 L25.4994796,13.8420278 Z M23.5955005,12.0813611 C23.4599988,12.5526901 23.726867,13.0461905 24.1915672,13.183625 C24.6562674,13.3210595 25.1428271,13.0503846 25.2783287,12.5790556 C25.3447254,12.3531992 25.319623,12.1098153 25.208579,11.9027858 C25.097535,11.6957563 24.9097097,11.5421597 24.686685,11.476 C24.2205773,11.3378207 23.7322207,11.6087484 23.5955005,12.0813611 L23.5955005,12.0813611 Z M27.2254974,21.1728611 C27.1697111,21.3713767 27.2803754,21.5787567 27.4747475,21.6399444 C27.5692911,21.6687705 27.6712857,21.6579044 27.7578606,21.6097827 C27.8444354,21.5616609 27.9083461,21.4803102 27.9352617,21.3839722 C27.9637714,21.2882946 27.9533566,21.185025 27.9063389,21.0971833 C27.8593213,21.0093415 27.7796091,20.9442294 27.6849709,20.9163611 C27.4884732,20.8604454 27.2840463,20.9745662 27.2254974,21.1728611 L27.2254974,21.1728611 Z M18.6583716,27.0438611 C18.7345737,26.7832208 18.7052829,26.5025299 18.5769749,26.2638439 C18.4486668,26.0251579 18.2319099,25.8481368 17.974625,25.7719167 C17.7184126,25.6954505 17.4427357,25.7254737 17.2083696,25.8553673 C16.9740035,25.9852609 16.8001917,26.2043595 16.7252525,26.4643611 C16.6492235,26.7248613 16.6786078,27.0053466 16.806911,27.2438254 C16.9352141,27.4823042 17.1518717,27.6591402 17.4089991,27.73525 C17.9428834,27.892 18.5064279,27.5806111 18.6583716,27.0438611 L18.6583716,27.0438611 Z M12.4468932,19.3710278 C12.52489,19.1041775 12.374867,18.8237155 12.1117845,18.7445556 C11.8476987,18.6686906 11.5723418,18.8212411 11.492562,19.0876111 C11.4557584,19.2156921 11.4707432,19.3533646 11.5342066,19.4702186 C11.59767,19.5870725 11.7043898,19.6734923 11.8307928,19.7103889 C11.9568675,19.7489474 12.0929086,19.7347793 12.2086269,19.6710392 C12.3243452,19.6072991 12.4101342,19.4992785 12.4468932,19.3710278 Z M13.0224059,21.8895833 C13.0686752,21.7322391 13.0509187,21.5626563 12.9730988,21.4186784 C12.8952788,21.2747006 12.7638723,21.1683106 12.6082032,21.12325 C12.4525209,21.0738531 12.2837551,21.0904679 12.1403452,21.1693102 C11.9969353,21.2481525 11.8910923,21.3825091 11.8469238,21.5417778 C11.7522307,21.8710085 11.9386074,22.2157617 12.2632078,22.3118056 C12.5878083,22.4078494 12.9277128,22.2188141 13.0224059,21.8895833 L13.0224059,21.8895833 Z M14.3774105,24.1595556 C14.4961122,23.7386807 14.2590696,23.2992366 13.8456076,23.1736667 C13.432313,23.0529527 13.0005704,23.2938456 12.8798286,23.7125278 C12.8208847,23.9134691 12.8433761,24.1299552 12.9423196,24.3140218 C13.0412631,24.4980884 13.2084895,24.6345379 13.4069483,24.6931389 C13.6054056,24.7533576 13.8193378,24.7309224 14.0014491,24.6307933 C14.1835603,24.5306642 14.3188507,24.3610884 14.3774105,24.1595556 L14.3774105,24.1595556 Z M16.2813897,25.9228611 C16.4158747,25.4506258 16.1485675,24.9569935 15.6835017,24.81875 C15.4604656,24.7520008 15.2203747,24.7784749 15.0166914,24.8922771 C14.8130081,25.0060794 14.6626441,25.1977609 14.5990817,25.4246389 C14.5335208,25.6502826 14.5591637,25.893111 14.6703535,26.0995532 C14.7815433,26.3059955 14.9691431,26.4590876 15.1917661,26.5250556 C15.6563862,26.6618379 16.1428247,26.3930014 16.2813897,25.9228611 L16.2813897,25.9228611 Z M26.3731558,24.0466111 C26.6373835,24.1261168 26.9151743,23.9735495 26.9939394,23.7056667 C27.0694328,23.4383465 26.9195749,23.1590223 26.6572697,23.0781389 C26.3938193,23.0016708 26.1186674,23.1540229 26.0396082,23.4201389 C25.9624111,23.6864223 26.1112864,23.9660412 26.3731558,24.0466111 L26.3731558,24.0466111 Z M24.6304867,25.99675 C24.953924,26.0935388 25.2935093,25.9062052 25.3891644,25.5782222 C25.4367863,25.4200462 25.4200849,25.2491246 25.342778,25.1035067 C25.2654711,24.9578887 25.1339754,24.8496611 24.9775635,24.8029167 C24.6515128,24.7059422 24.3094155,24.8940454 24.2116009,25.2240833 C24.1204366,25.5543673 24.3066762,25.8979004 24.6304867,25.99675 L24.6304867,25.99675 Z M22.3934803,27.3700278 C22.5922189,27.4300985 22.8063788,27.4072006 22.9883996,27.3064192 C23.1704204,27.2056378 23.3052342,27.0353157 23.3629017,26.8332778 C23.4208595,26.6324113 23.3977049,26.4164148 23.2985393,26.2328758 C23.1993737,26.0493367 23.0323337,25.9133148 22.834221,25.8547778 C22.5673544,25.774924 22.2787572,25.8455385 22.0771411,26.0400216 C21.875525,26.2345047 21.7915203,26.5233097 21.8567707,26.7976466 C21.9220212,27.0719835 22.1266137,27.290174 22.3934803,27.3700278 L22.3934803,27.3700278 Z M19.9181512,27.93 C20.1404224,27.998769 20.3805995,27.9742635 20.5849127,27.8619697 C20.7892259,27.749676 20.9406097,27.5589734 21.0051729,27.3325556 C21.1415367,26.8610808 20.875251,26.3667534 20.4104071,26.2284444 C19.9455632,26.0901355 19.4581881,26.3602197 19.3218243,26.8316944 C19.1887455,27.3018589 19.4552578,27.7927171 19.9181512,27.93 Z" id="Shape"></path>
                <path d="M28.1574533,12.0607778 C27.6663842,12.5861212 26.8485975,12.6087942 26.3299663,12.1114444 C26.0798451,11.8732038 25.9337973,11.5435783 25.9242237,11.1956955 C25.9146501,10.8478126 26.0423422,10.5104374 26.2789715,10.2584167 C26.513407,10.0048364 26.8377004,9.85630731 27.1802728,9.84561321 C27.5228451,9.83491912 27.8555304,9.96293927 28.1048975,10.2014167 C28.6248332,10.7005105 28.6483439,11.5322914 28.1574533,12.0607778 L28.1574533,12.0607778 Z M15.2708601,9.07988889 C15.0139256,8.83603039 14.611218,8.84780813 14.3685644,9.10627778 C14.128374,9.36616514 14.1399939,9.77394992 14.3945822,10.0193333 C14.6515809,10.2634946 15.0547661,10.2512312 15.2968779,9.99188889 C15.5369496,9.73235785 15.5253257,9.32490627 15.2708601,9.07988889 Z M18.5017447,7.83327778 C18.1847648,7.53282993 17.6881365,7.54815109 17.3897459,7.86758333 C17.2463845,8.02202545 17.1694037,8.22791676 17.1757472,8.43994037 C17.1820907,8.65196397 17.2712385,8.85274213 17.423569,8.99808333 C17.7411462,9.29817261 18.2379543,9.28214601 18.5360882,8.96219444 C18.8320048,8.64008493 18.816678,8.13627033 18.5017447,7.83327778 L18.5017447,7.83327778 Z M21.9673095,7.57625 C21.5650656,7.19359695 20.9336601,7.21222455 20.5540251,7.61794444 C20.1951272,8.02846385 20.2226482,8.65390051 20.6161755,9.03035967 C21.0097029,9.40681883 21.6268978,9.3981354 22.0099786,9.01075 C22.3875312,8.60220448 22.3684577,7.96096759 21.9673095,7.57625 L21.9673095,7.57625 Z M25.2460667,8.42755556 C25.0293618,8.21926527 24.7397691,8.10712588 24.4413423,8.11594095 C24.1429155,8.12475602 23.860248,8.25379911 23.6558616,8.47452778 C23.450982,8.69435474 23.3405956,8.98772986 23.348988,9.29010909 C23.3573804,9.59248833 23.4838642,9.87910029 23.7006122,10.0868889 C24.153334,10.5182004 24.8646342,10.4972034 25.291858,10.0399167 C25.7170643,9.58141496 25.6965894,8.86047184 25.2460667,8.42755556 L25.2460667,8.42755556 Z M12.531711,11.2627778 C12.3402281,11.0815459 12.0405743,11.0904919 11.8599327,11.2828333 C11.7730084,11.375403 11.7260565,11.4993015 11.7294749,11.6270906 C11.7328932,11.7548797 11.7863998,11.8760138 11.8781451,11.9636667 C11.9692846,12.0521627 12.0915651,12.0999613 12.2176873,12.0963914 C12.3438096,12.0928215 12.4632716,12.0381803 12.5494031,11.9446667 C12.7298485,11.7512889 12.7219343,11.446262 12.531711,11.2627778 L12.531711,11.2627778 Z M29.0779614,23.1578333 C28.8363218,23.4181683 28.847959,23.8277392 29.1039792,24.0735278 C29.3628908,24.30715 29.7580962,24.2893359 29.9955543,24.0333394 C30.2330124,23.7773429 30.2264623,23.3761594 29.9807775,23.1282778 C29.7230403,22.8846146 29.3196702,22.8978197 29.0779614,23.1578333 L29.0779614,23.1578333 Z M29.8949189,19.8180556 C29.5999403,20.1399903 29.6159656,20.6429165 29.9308234,20.9448611 C30.0825694,21.0906366 30.2853542,21.1690358 30.4942674,21.1626959 C30.7031806,21.1563559 30.9009813,21.0658 31.0438629,20.9110833 C31.187591,20.757276 31.2647636,20.5515931 31.2582162,20.3397821 C31.2516689,20.1279711 31.1619444,19.9275954 31.0089991,19.7832222 C30.6912849,19.4823815 30.1937601,19.4979373 29.8949189,19.8180556 L29.8949189,19.8180556 Z M29.6441077,16.3009444 C29.4620113,16.4965302 29.3642071,16.7576169 29.3723115,17.0264999 C29.3804159,17.295383 29.4937615,17.5499225 29.6872972,17.7338611 C29.8801965,17.9184231 30.137583,18.0175334 30.4026418,18.0093147 C30.6677007,18.001096 30.9186375,17.8862241 31.1000612,17.6900556 C31.4663655,17.2806405 31.4417446,16.6490516 31.0447136,16.2702482 C30.6476827,15.8914448 30.0246354,15.9050997 29.6441077,16.3009444 L29.6441077,16.3009444 Z M28.4337619,13.0413889 C28.1217039,13.3775558 28.0401434,13.8713344 28.2271408,14.2923019 C28.4141381,14.7132693 28.8328328,14.9784454 29.28784,14.964085 C29.7428471,14.9497246 30.1444767,14.6586585 30.3053073,14.2267132 C30.4661379,13.794768 30.3544669,13.307088 30.0224059,12.99125 C29.5738598,12.5595278 28.8609734,12.5843333 28.4337619,13.0413889 Z M27.3217631,26.0548056 C27.14301,26.2493733 27.1522998,26.5537147 27.3425773,26.7366944 C27.4344834,26.8239943 27.5569443,26.8704741 27.6827777,26.8658169 C27.8086111,26.8611596 27.9274063,26.8057507 28.0127946,26.7118889 C28.1001433,26.6202311 28.1472588,26.4966564 28.1434371,26.3692393 C28.1396155,26.2418221 28.0851811,26.1213807 27.9925008,26.0352778 C27.9015139,25.9466108 27.7792212,25.8987358 27.6530953,25.9024079 C27.5269694,25.9060799 27.4075856,25.960991 27.3217631,26.0548056 L27.3217631,26.0548056 Z M13.5968779,27.7405278 C14.0791934,27.2120913 14.0516901,26.3881894 13.5352391,25.8940516 C13.0187882,25.3999137 12.2062512,25.420069 11.7142332,25.9392222 C11.2493438,26.4699623 11.2845453,27.2793649 11.7937041,27.7665256 C12.3028629,28.2536863 13.1015773,28.2421706 13.5968779,27.7405278 Z M10.7973676,14.8405833 C10.9538066,14.6723906 11.0098945,14.4323244 10.9445034,14.2108153 C10.8791123,13.9893062 10.7021768,13.8200067 10.4803467,13.7666903 C10.2585166,13.7133739 10.0254932,13.7841406 9.86905418,13.9523333 C9.6244873,14.2109444 9.63905724,14.6189167 9.89767371,14.8659167 C10.1510866,15.1086944 10.5538414,15.0986667 10.7973676,14.8405833 L10.7973676,14.8405833 Z M9.97728803,18.1819444 C10.2738763,17.860049 10.2594828,17.3559203 9.94502602,17.0519722 C9.62702635,16.7630903 9.14003045,16.7836643 8.84681809,17.0983679 C8.55360573,17.4130716 8.56087369,17.9073876 8.86320784,18.2130833 C9.17993698,18.5149041 9.67742786,18.5009991 9.97728803,18.1819444 L9.97728803,18.1819444 Z M10.2296602,21.6974722 C10.6090923,21.2887342 10.5902266,20.6454732 10.1875115,20.2603333 C9.78458218,19.8767337 9.15148095,19.8965716 8.77266605,20.3046667 C8.39544765,20.7133198 8.41498885,21.3544008 8.81637588,21.7386389 C9.22017141,22.1255 9.85188246,22.1049167 10.2296602,21.6974722 L10.2296602,21.6974722 Z M11.4379247,24.9580833 C11.8633411,24.4993715 11.8426286,23.7780179 11.3916131,23.3451944 C11.1749674,23.1376913 10.8857456,23.0262747 10.58791,23.0355849 C10.2900745,23.044895 10.0081661,23.1741647 9.80453015,23.3948056 C9.59899587,23.6141616 9.48797922,23.9074618 9.49598463,24.2099668 C9.50399005,24.5124718 9.63035932,24.7993094 9.84719927,25.0071667 C10.3010672,25.4358196 11.0105864,25.4139268 11.4379247,24.9580833 L11.4379247,24.9580833 Z M24.6029079,28.9185278 C24.7258684,29.0364701 24.8901111,29.0998309 25.0592689,29.0945808 C25.2284266,29.0893306 25.3885424,29.0159027 25.5041628,28.8905556 C25.620193,28.7661323 25.6825229,28.5999214 25.6773463,28.4287391 C25.6721698,28.2575567 25.5999141,28.0955326 25.476584,27.9785556 C25.3540264,27.8606379 25.1901864,27.7971265 25.0213292,27.8020792 C24.8524721,27.807032 24.6925245,27.8800404 24.5768901,28.0049444 C24.3354854,28.2645653 24.3471306,28.6734729 24.6029079,28.9185278 L24.6029079,28.9185278 Z M21.3720233,30.1635556 C21.6894399,30.4670278 22.1868993,30.4469722 22.4850627,30.1281944 C22.6285057,29.9747364 22.705745,29.769629 22.6996903,29.5582556 C22.6936355,29.3468821 22.6047859,29.1466691 22.4528007,29.0019167 C22.1349949,28.6997259 21.6360376,28.7153047 21.3371595,29.03675 C21.0416188,29.3582906 21.0571865,29.8614429 21.3720233,30.1635556 L21.3720233,30.1635556 Z M17.9043771,30.4174167 C18.3102541,30.8053333 18.938843,30.7863333 19.3171411,30.3788889 C19.4997011,30.1837848 19.598148,29.9229783 19.5907272,29.6541015 C19.5833065,29.3852247 19.4706291,29.1304125 19.2775941,28.9459722 C18.874937,28.5619541 18.2420914,28.5798756 17.8611876,28.9860833 C17.679444,29.1815322 17.5818545,29.442302 17.5899574,29.7108397 C17.5980603,29.9793774 17.7111896,30.2336062 17.9043771,30.4174167 L17.9043771,30.4174167 Z M14.6323845,29.5708611 C14.8488232,29.7785004 15.1378589,29.8902002 15.4356482,29.8812876 C15.7334374,29.872375 16.0154765,29.7435835 16.2194674,29.5233611 C16.6446523,29.0647116 16.622753,28.3433056 16.170554,27.9120556 C15.718355,27.4808055 15.0070949,27.5030172 14.58191,27.9616667 C14.3778147,28.18165 14.2684288,28.4749738 14.2778987,28.7768879 C14.2873686,29.0788021 14.4149157,29.3644806 14.6323845,29.5708611 L14.6323845,29.5708611 Z" id="Shape"></path>
                <path d="M33.4088766,14.8374167 C32.6138232,15.184043 31.6922272,14.8117524 31.3498316,14.0056389 C31.1850108,13.618533 31.1788502,13.1808133 31.3327097,12.7890933 C31.4865692,12.3973734 31.7877988,12.0838593 32.1699112,11.91775 C32.960059,11.5928245 33.8613487,11.9681461 34.198425,12.7624786 C34.5355013,13.556811 34.1846968,14.4787275 33.4088766,14.8374167 L33.4088766,14.8374167 Z M22.4090909,4.72466667 C22.3650131,4.49633231 22.2329391,4.29527086 22.042159,4.1660717 C21.8513789,4.03687253 21.6176612,3.99021432 21.3928375,4.03644444 C21.1675496,4.08089884 20.9690989,4.21477752 20.8415859,4.40832955 C20.7140728,4.60188159 20.6680605,4.83907302 20.7137741,5.06719444 C20.8205606,5.52725736 21.2675327,5.81878499 21.7245465,5.72644831 C22.1815603,5.63411163 22.4842716,5.19111532 22.4090909,4.72466667 L22.4090909,4.72466667 Z M26.1197429,5.54325 C26.0515871,5.27008504 25.8789317,5.03572088 25.639971,4.89200288 C25.4010103,4.74828487 25.1154404,4.70705875 24.846434,4.77744444 C24.5768431,4.84621477 24.3454337,5.02121338 24.203504,5.26364704 C24.0615743,5.5060807 24.0208498,5.79592091 24.0903581,6.06891667 C24.1829388,6.43660251 24.4618861,6.72626249 24.8221234,6.82878449 C25.1823606,6.9313065 25.5691592,6.83111499 25.8368158,6.56595116 C26.1044724,6.30078732 26.2123236,5.91093584 26.1197429,5.54325 L26.1197429,5.54325 Z M29.5410774,7.21788889 C29.4386966,6.8823179 29.2086632,6.60197808 28.9019017,6.43893063 C28.5951403,6.27588319 28.2369556,6.24357797 27.9066422,6.34916667 C27.5757108,6.45315873 27.2992104,6.6864951 27.1382105,6.99763965 C26.9772107,7.3087842 26.9449583,7.67213655 27.0485767,8.00744444 C27.2776506,8.68652306 27.9982506,9.05705878 28.673706,8.84309313 C29.3491613,8.62912748 29.7337633,7.90849423 29.5410774,7.21788889 L29.5410774,7.21788889 Z M32.2698194,9.68472222 C32.1376834,9.32137151 31.8684238,9.02628666 31.5214643,8.86459081 C31.1745047,8.70289495 30.7783676,8.68788053 30.4204775,8.82286111 C30.0616883,8.95621579 29.770118,9.22914349 29.610334,9.58120517 C29.45055,9.93326685 29.4357375,10.3354108 29.5691766,10.6985833 C29.8452091,11.4549833 30.6735371,11.8412061 31.4192991,11.5612361 C32.165061,11.2812661 32.5458519,10.4411222 32.2698194,9.68472222 L32.2698194,9.68472222 Z M14.9711356,5.71108333 C14.9050434,5.5554507 14.7805839,5.43290756 14.6252465,5.37052006 C14.4699091,5.30813255 14.2964751,5.31103392 14.1432507,5.37858333 C13.8245416,5.51805824 13.6776535,5.89317522 13.8151668,6.21643056 C13.9526801,6.53968589 14.3225214,6.68866936 14.6412305,6.54919444 C14.9602081,6.40986111 15.1090297,6.03408333 14.9711356,5.71108333 Z M30.6660851,26.7657222 C30.2886532,27.0504158 30.2045445,27.5887574 30.4767051,27.9778573 C30.7488656,28.3669572 31.2776177,28.464309 31.6672482,28.1970556 C31.8544339,28.0623886 31.9810893,27.8577056 32.019261,27.6281811 C32.0574327,27.3986566 32.0039824,27.1631601 31.8707071,26.9736667 C31.7381949,26.7840131 31.5368058,26.655545 31.3108749,26.6165443 C31.0849439,26.5775437 30.852993,26.6312076 30.6660851,26.7657222 L30.6660851,26.7657222 Z M32.3853382,23.3446667 C32.0612219,23.5437876 31.8684083,23.9049327 31.8811322,24.2890582 C31.8938562,24.6731838 32.1101335,25.0203886 32.4466957,25.1969961 C32.7832578,25.3736036 33.1876208,25.3520732 33.5041016,25.1406944 C33.9808252,24.8222889 34.1184374,24.1753662 33.813558,23.6859223 C33.5086786,23.1964784 32.8735635,23.0447254 32.3853382,23.3446667 Z M33.1986532,19.4950556 C32.570082,19.853989 32.3467977,20.6613916 32.6996327,21.2995278 C32.8692166,21.6055564 33.1518805,21.8305745 33.4852589,21.9249352 C33.8186374,22.0192959 34.1753326,21.9752444 34.4766452,21.8025 C34.7791316,21.6315326 35.0019294,21.3452998 35.0956923,21.0071981 C35.1894552,20.6690964 35.1464444,20.3070311 34.9761861,20.0011944 C34.8069302,19.694695 34.5244058,19.4690845 34.190937,19.3741318 C33.8574682,19.2791791 33.5004549,19.3226862 33.1986532,19.4950556 L33.1986532,19.4950556 Z M33.1492195,15.6348889 C32.4383129,15.9931025 32.1473592,16.8673188 32.4987756,17.58925 C32.6675609,17.937179 32.9661532,18.2024916 33.3284135,18.3264205 C33.6906739,18.4503494 34.0867005,18.4226652 34.4287726,18.2495 C34.7713365,18.0785252 35.0325771,17.7761066 35.1546576,17.4091973 C35.2767381,17.0422881 35.2495874,16.6411569 35.0792164,16.2946111 C34.7253867,15.5724479 33.8618388,15.2772652 33.1492195,15.6348889 L33.1492195,15.6348889 Z M25.2299357,31.4518611 C25.0236742,31.5420856 24.8805378,31.7370653 24.8544448,31.9633533 C24.8283518,32.1896414 24.9232662,32.4128592 25.1034347,32.5489228 C25.2836032,32.6849864 25.521654,32.7132244 25.7279155,32.623 C26.0468932,32.4836667 26.1957147,32.1084167 26.058341,31.7838333 C25.9198345,31.4602782 25.5490789,31.3117029 25.2299357,31.4518611 L25.2299357,31.4518611 Z M7.70281604,26.0817222 C8.49657829,25.7328325 8.86153383,24.7976255 8.51821243,23.99225 C8.35438252,23.605575 8.04560183,23.3009013 7.6599967,23.1454492 C7.27439157,22.989997 6.8436512,22.9965416 6.46280992,23.1636389 C6.08069717,23.3297354 5.77949342,23.6432821 5.62571989,24.0350317 C5.47194637,24.4267813 5.47825435,24.8645039 5.64325069,25.2515278 C5.98646449,26.057095 6.90804475,26.4285767 7.70281604,26.0817222 L7.70281604,26.0817222 Z M9.20456076,11.2342778 C9.39152918,11.1001414 9.51828584,10.8961497 9.55693209,10.6672005 C9.59557834,10.4382512 9.54294676,10.2031091 9.41062137,10.0135278 C9.27897883,9.82295736 9.07773154,9.69362319 8.85161744,9.65427669 C8.62550335,9.61493019 8.39326139,9.66883215 8.20651974,9.804 C8.01846042,9.93790109 7.89091449,10.1424351 7.85222157,10.3721563 C7.81352865,10.6018775 7.86689358,10.8377586 8.00045914,11.0273889 C8.27703797,11.421115 8.81556125,11.5136442 9.20456076,11.2342778 L9.20456076,11.2342778 Z M7.48686869,14.6548056 C7.7220951,14.5039569 7.88854431,14.2644468 7.94954642,13.9890408 C8.01054853,13.7136349 7.96109854,13.4249293 7.8120906,13.1865278 C7.50243416,12.6911514 6.85547398,12.5441764 6.36706459,12.85825 C5.87865519,13.1723236 5.73374729,13.8285125 6.04340373,14.3238889 C6.35191146,14.8195556 6.99817167,14.9677118 7.48686869,14.6548056 Z M6.67095194,18.5049444 C7.09176481,18.280853 7.35926515,17.8425164 7.36932836,17.3605575 C7.37939156,16.8785986 7.13042761,16.4291685 6.7193458,16.1872082 C6.308264,15.9452478 5.80001678,15.9489877 5.39243955,16.1969722 C4.7667213,16.556332 4.54549121,17.3613467 4.89771506,17.9971817 C5.24993892,18.6330166 6.04289209,18.8600772 6.67095194,18.5049444 L6.67095194,18.5049444 Z M6.72142639,22.3661667 C7.4338345,22.007918 7.72504253,21.1317561 7.37187022,20.4091667 C7.20320631,20.0609892 6.9044914,19.7955023 6.54203395,19.6716385 C6.1795765,19.5477747 5.78336601,19.5757824 5.44135292,19.7494444 C5.09916743,19.9209784 4.83824215,20.2234379 4.71604654,20.5902053 C4.59385093,20.9569728 4.62040796,21.3579645 4.78986838,21.7048611 C5.14355791,22.4280621 6.0079595,22.7240064 6.72142639,22.3661667 L6.72142639,22.3661667 Z M17.4615549,33.2774444 C17.5064013,33.5058874 17.6388863,33.7069034 17.8298627,33.8362681 C18.0208392,33.9656329 18.2546621,34.0127487 18.4798898,33.96725 C18.9483138,33.8705381 19.2513061,33.4076782 19.1573921,32.9322778 C19.0622602,32.4582394 18.6074559,32.1511831 18.1395776,32.2451111 C17.6716501,32.3408326 17.3683669,32.8026009 17.4615549,33.2774444 L17.4615549,33.2774444 Z M13.7529844,32.45675 C13.8209188,32.7299932 13.9934001,32.9645181 14.2322673,33.1084367 C14.4711345,33.2523554 14.7566963,33.2938036 15.0257729,33.2236111 C15.3881016,33.1297098 15.673516,32.846884 15.7745032,32.4816713 C15.8754904,32.1164587 15.776708,31.7243438 15.5153664,31.4530324 C15.2540248,31.1817211 14.869828,31.072432 14.5074992,31.1663333 C14.2387281,31.235966 14.0082388,31.4110414 13.866739,31.6530429 C13.7252391,31.8950445 13.6843202,32.1841477 13.7529844,32.45675 L13.7529844,32.45675 Z M10.3306091,30.7815833 C10.4322784,31.1174101 10.662036,31.3981095 10.9687831,31.5612532 C11.2755303,31.7243969 11.633833,31.7564578 11.9640037,31.6503056 C12.2950112,31.5468807 12.5717433,31.3139417 12.7329738,31.0030259 C12.8942044,30.6921102 12.9266419,30.3288483 12.8231099,29.9936111 C12.6072312,29.295481 11.8747324,28.9065316 11.1860728,29.1243611 C10.8555333,29.2284289 10.5794783,29.4617517 10.4189447,29.7727408 C10.2584111,30.0837299 10.2266231,30.446767 10.3306091,30.7815833 L10.3306091,30.7815833 Z M7.60082645,28.3131667 C7.73228036,28.6770605 8.00142792,28.9727311 8.34859316,29.1346219 C8.6957584,29.2965127 9.09225408,29.3112462 9.45016835,29.1755556 C10.1793366,28.884961 10.5454304,28.0562197 10.2738899,27.3108636 C10.0023494,26.5655076 9.19291882,26.1773263 8.45264769,26.4374444 C7.7074107,26.7175642 7.32635231,27.5566601 7.60082645,28.3131667 L7.60082645,28.3131667 Z M28.1970003,29.6004167 C27.9184063,29.8391426 27.8769824,30.2590784 28.1034233,30.5490542 C28.3298643,30.83903 28.7423772,30.8943032 29.0352923,30.6739167 C29.2331875,30.5250222 29.3354385,30.2786393 29.3020987,30.031023 C29.2687588,29.7834067 29.105119,29.5738529 28.8751089,29.4842285 C28.6450987,29.394604 28.38522,29.439132 28.1970003,29.6004167 Z M21.8647995,32.3691389 C21.4962043,32.4255955 21.2418204,32.7734644 21.2955311,33.1476111 C21.3213797,33.3273492 21.4166529,33.4892782 21.5603419,33.5976912 C21.7040309,33.7061042 21.8843344,33.752097 22.0614937,33.7255278 C22.2390224,33.6996823 22.3991078,33.6032303 22.506404,33.4574678 C22.6137002,33.3117053 22.6593823,33.128621 22.6333639,32.9486389 C22.6073908,32.7683344 22.5117692,32.6059149 22.3675888,32.4972024 C22.2234083,32.3884899 22.042513,32.3424148 21.8647995,32.3691389 L21.8647995,32.3691389 Z M18.5777166,4.85291667 C18.5516395,4.67280858 18.455905,4.51065363 18.3116794,4.40230329 C18.1674539,4.29395294 17.9866175,4.24833229 17.8091521,4.27552778 C17.5705431,4.31116501 17.3688041,4.47320742 17.2799283,4.7006152 C17.1910525,4.92802297 17.2285422,5.18624746 17.3782754,5.37801799 C17.5280086,5.56978852 17.7672373,5.66597058 18.0058463,5.63033333 C18.3753468,5.5756972 18.6313142,5.22772777 18.5777166,4.85291667 L18.5777166,4.85291667 Z M11.7850015,7.43744444 C11.5527637,7.14111898 11.1280803,7.09087368 10.8348332,7.32502778 C10.6202399,7.49718994 10.5290297,7.78351392 10.6037354,8.05048197 C10.6784411,8.31745002 10.90435,8.51248475 11.176117,8.54463814 C11.4478839,8.57679153 11.7119864,8.43973121 11.8452689,8.19737073 C11.9785514,7.95501026 11.9547649,7.65508075 11.7850015,7.43744444 L11.7850015,7.43744444 Z" id="Shape"></path>
                <path d="M37.8615549,21.0345833 C36.7535206,21.0331268 35.8562845,20.1212018 35.8571472,18.9973611 C35.8563141,18.4575082 36.0675988,17.9395692 36.444257,17.5581323 C36.8209153,17.1766954 37.3318982,16.9632034 37.8641567,16.9648889 C38.3964216,16.9639054 38.9071578,17.1779637 39.2834777,17.5597508 C39.6597976,17.9415378 39.8707129,18.459615 39.8696051,18.9994722 C39.8690305,20.1238099 38.9700799,21.0348749 37.8615549,21.0345833 L37.8615549,21.0345833 Z M29.98442,3.48280556 C30.0461953,3.19165163 29.9909783,2.88753192 29.8309975,2.63779766 C29.6710167,2.3880634 29.4194745,2.213324 29.1320784,2.15227778 C28.8450845,2.08892488 28.5450307,2.14426901 28.2984019,2.30604719 C28.0517731,2.46782537 27.878934,2.72267915 27.8181818,3.01413889 C27.6905832,3.62086204 28.0720731,4.21762294 28.6702632,4.34704167 C29.2684534,4.47646039 29.8568214,4.08952871 29.98442,3.48280556 L29.98442,3.48280556 Z M33.9380777,6.35391667 C33.9942354,5.99768198 33.9083293,5.63342368 33.6993166,5.34152318 C33.4903039,5.04962269 33.1753649,4.85407351 32.8239976,4.79802778 C32.1010143,4.69873874 31.4321911,5.20324995 31.3179173,5.93410434 C31.2036435,6.66495874 31.6857538,7.3545965 32.4035507,7.48705556 C33.1355405,7.60282741 33.8218737,7.09601924 33.9380777,6.35391667 L33.9380777,6.35391667 Z M39.0989593,14.3893333 C39.1251668,13.8939816 38.9559077,13.4084202 38.6285527,13.039856 C38.3011977,12.6712918 37.8426704,12.4500378 37.3542088,12.4249444 C36.865663,12.3976369 36.3865216,12.568872 36.0227646,12.9007748 C35.6590076,13.2326775 35.4406127,13.6978953 35.4158861,14.1935278 C35.3752753,14.8644963 35.6927802,15.5059638 36.2475504,15.8737712 C36.8023206,16.2415786 37.5090207,16.2791494 38.0986624,15.9721831 C38.6883041,15.6652168 39.070188,15.0609313 39.0989593,14.3893333 L39.0989593,14.3893333 Z M20.7423936,0.815944444 C20.7423936,0.362583333 20.3807469,0 19.9353229,0 C19.5019983,0.0158053696 19.1587621,0.376682288 19.1587621,0.816472222 C19.1587621,1.25626216 19.5019983,1.61713907 19.9353229,1.63294444 C20.3807469,1.63294444 20.7423936,1.26825 20.7423936,0.815944444 Z M28.6715641,33.6521667 C28.0727992,33.7812939 27.6906105,34.3782911 27.8179216,34.9855972 C27.9452328,35.5929033 28.5338338,35.9805439 29.1325987,35.8514167 C29.7313636,35.7222894 30.1135524,35.1252922 29.9862412,34.5179861 C29.85893,33.91068 29.270329,33.5230394 28.6715641,33.6521667 L28.6715641,33.6521667 Z M32.4035507,30.514 C31.926367,30.5854281 31.523729,30.9111989 31.3490189,31.3672122 C31.1743088,31.8232255 31.2544275,32.3392668 31.5588543,32.7187537 C31.8632811,33.0982405 32.3451421,33.2827415 32.8208754,33.2019722 C33.5465968,33.0787604 34.039012,32.3856128 33.9245523,31.6483828 C33.8100927,30.9111528 33.1314844,30.4050379 32.4035507,30.514 L32.4035507,30.514 Z M35.2857974,26.4047222 C34.367605,26.5026607 33.7015412,27.3370154 33.7981022,28.2683056 C33.8946633,29.1995957 34.7172836,29.8751607 35.635476,29.7772222 C36.0768197,29.7310803 36.4818785,29.5085766 36.7611352,29.1588838 C37.040392,28.809191 37.1708547,28.3611004 37.1236915,27.9136389 C37.0267596,26.9823282 36.2040601,26.3068894 35.2857974,26.4047222 L35.2857974,26.4047222 Z M37.1580349,21.8389167 C36.1425147,21.8951367 35.3633222,22.7742003 35.4158861,23.8043611 C35.4404759,24.300044 35.6588304,24.7653462 36.0226192,25.097278 C36.3864081,25.4292097 36.865628,25.6003953 37.3542088,25.5729444 C37.842578,25.5477157 38.3009725,25.3264029 38.6282165,24.9578539 C38.9554604,24.5893048 39.1246489,24.1038204 39.0984389,23.6085556 C39.0432869,22.5769571 38.1752469,21.7853089 37.1580349,21.8389167 Z M19.9353229,36.3665278 C19.498568,36.3777896 19.1502848,36.7401356 19.1502848,37.1832639 C19.1502848,37.6263922 19.498568,37.9887382 19.9353229,38 C20.3800499,38 20.7405724,37.6343348 20.7405724,37.1832639 C20.7405724,36.732193 20.3800499,36.3665278 19.9353229,36.3665278 Z M2.0080502,21.0345833 C3.11555865,21.0322542 4.01199372,20.1206701 4.0114172,18.9973611 C4.01224724,18.4581498 3.80146203,17.9407733 3.42559277,17.5594433 C3.04972351,17.1781134 2.5396782,16.964187 2.0080502,16.9648889 C1.47554119,16.9641881 0.96462094,17.1783253 0.587933499,17.5600891 C0.211246058,17.9418528 -0.000276789666,18.4598945 -2.49359114e-10,19 C0.00229343763,20.1235284 0.900321405,21.0334224 2.0080502,21.0345833 Z M11.1990817,4.34625 C11.7975581,4.21726676 12.1796295,3.62062536 12.052464,3.01361111 C11.9916868,2.72221275 11.8189703,2.46737251 11.5725048,2.3054393 C11.3260392,2.14350609 11.0261287,2.08782014 10.7390878,2.15069444 C10.3524055,2.23403656 10.0389335,2.52028312 9.91675363,2.90160781 C9.79457377,3.2829325 9.88224811,3.70140303 10.1467506,3.9993856 C10.411253,4.29736817 10.8123994,4.42959213 11.1990817,4.34625 L11.1990817,4.34625 Z M7.4681359,7.486 C8.20053494,7.36791156 8.70024355,6.67047955 8.58481788,5.92747222 C8.52919716,5.57075141 8.33592569,5.25113533 8.04764729,5.03914472 C7.75936889,4.8271541 7.3997758,4.74021146 7.04820937,4.7975 C6.69693738,4.85367065 6.38212786,5.04927241 6.17322314,5.34115841 C5.96431842,5.63304442 5.8784825,5.99723277 5.93464953,6.35338889 C6.04979946,7.09561932 6.73632657,7.60267843 7.4681359,7.486 L7.4681359,7.486 Z M4.58380777,11.5942222 C5.48445642,11.4759309 6.1275688,10.6504364 6.03276949,9.7343453 C5.93797018,8.81825419 5.13988616,8.14618338 4.23464953,8.22013889 C3.79309893,8.26639751 3.38791487,8.48918179 3.10872348,8.83921215 C2.8295321,9.18924251 2.6993432,9.63767089 2.74695439,10.0853056 C2.79298043,10.5325755 3.01244331,10.9429345 3.35698828,11.2259673 C3.70153326,11.509 4.14288798,11.6414817 4.58380777,11.5942222 L4.58380777,11.5942222 Z M2.71157025,16.1595 C3.72855358,16.104686 4.50945207,15.224539 4.45632078,14.193 C4.43146871,13.6968914 4.21268873,13.2312889 3.84840861,12.8992553 C3.48412849,12.5672218 3.00439409,12.3961434 2.51539639,12.4238889 C2.02708068,12.4495293 1.5688521,12.6710379 1.24167857,13.0396067 C0.91450504,13.4081754 0.745235042,13.8935588 0.771166207,14.3888056 C0.825206417,15.4210955 1.69376617,16.2136902 2.71157025,16.1595 L2.71157025,16.1595 Z M9.88674625,34.5166667 C9.80448329,34.9091477 9.93491052,35.316328 10.2288973,35.5848266 C10.522884,35.8533252 10.9357667,35.9423507 11.3120163,35.8183682 C11.688266,35.6943858 11.9707215,35.3762311 12.0529844,34.98375 C12.1795196,34.3769732 11.7976545,33.78089 11.1996021,33.6516389 C10.6018151,33.5242176 10.0149387,33.9109046 9.88674625,34.5166667 L9.88674625,34.5166667 Z M5.93516988,31.6445 C5.87841997,32.0007988 5.9640144,32.3653457 6.17300862,32.6574558 C6.38200285,32.9495659 6.69716112,33.1451489 7.04872972,33.2009167 C7.58440258,33.2874061 8.11869108,33.0380625 8.40241702,32.5691732 C8.68614295,32.1002839 8.66342012,31.5042071 8.34484587,31.0589376 C8.02627162,30.613668 7.47459628,30.4069115 6.94710685,30.5350939 C6.41961742,30.6632763 6.02021477,31.1011491 5.93516988,31.6445 L5.93516988,31.6445 Z M2.74695439,27.9146944 C2.69949935,28.3619896 2.82973107,28.8100265 3.10883455,29.1596729 C3.38793804,29.5093193 3.79290372,29.7317499 4.23412917,29.77775 C4.67519111,29.8256023 5.11689436,29.6934361 5.46172226,29.4104304 C5.80655016,29.1274247 6.02614405,28.7168538 6.07202326,28.2693611 C6.11833282,27.8219282 5.98749917,27.3741626 5.70830548,27.024572 C5.42911179,26.6749814 5.02442928,26.4522038 4.58328742,26.40525 C4.142315,26.3578573 3.7008721,26.490372 3.35636214,26.7735552 C3.01185218,27.0567384 2.79258967,27.4673158 2.74695439,27.9146944 L2.74695439,27.9146944 Z M0.771166207,23.6080278 C0.744956288,24.1032926 0.914144746,24.5887771 1.24138868,24.9573261 C1.56863262,25.3258751 2.02702713,25.5471879 2.51539639,25.5724167 C3.00441328,25.6005951 3.48430753,25.4297374 3.84866833,25.0977294 C4.21302913,24.7657214 4.43174589,24.3 4.45632078,23.8038333 C4.50856498,22.7728016 3.72799215,21.8934939 2.71157025,21.8383889 C1.6946681,21.7856683 0.827155233,22.5768358 0.771166207,23.6080278 L0.771166207,23.6080278 Z M24.351056,35.7163056 C23.8896952,35.8422588 23.615781,36.3230765 23.7385981,36.7913889 C23.8629644,37.2590513 24.3373451,37.5361187 24.7985614,37.4104722 C25.0206655,37.3510536 25.2102893,37.2043562 25.3255122,37.0028111 C25.440735,36.801266 25.4720666,36.5614731 25.4125803,36.3364444 C25.2882043,35.8679488 24.8130126,35.5903434 24.351056,35.7163056 L24.351056,35.7163056 Z M15.5185491,35.7163056 C15.0617498,35.6029679 14.5993805,35.8806225 14.4776816,36.3413506 C14.3559826,36.8020787 14.6195632,37.2769989 15.0710438,37.4104722 C15.3719999,37.4994453 15.6968631,37.4162704 15.9201282,37.1930806 C16.1433934,36.9698909 16.2301006,36.6416343 16.1467522,36.3351271 C16.0634038,36.0286199 15.8230507,35.7918562 15.5185491,35.7163056 L15.5185491,35.7163056 Z M25.4131007,1.66302778 C25.4722794,1.43793786 25.4407492,1.19821665 25.3254639,0.996733059 C25.2101786,0.795249466 25.0206083,0.648554233 24.7985614,0.589 C24.3460907,0.487035792 23.8947553,0.764776266 23.774937,1.21891274 C23.6551187,1.67304922 23.9093699,2.14229896 24.3515764,2.28316667 C24.5734305,2.34395018 24.8100111,2.31273267 25.0091467,2.19639831 C25.2082823,2.08006394 25.3536169,1.88816796 25.4131007,1.66302778 L25.4131007,1.66302778 Z M16.1325681,1.20755556 C16.0729928,0.982551438 15.9275625,0.790854721 15.7283921,0.674797094 C15.5292216,0.558739468 15.2926951,0.527868027 15.0710438,0.589 C14.8494991,0.648655979 14.6604421,0.795229575 14.5455526,0.996406798 C14.4306631,1.19758402 14.3993749,1.43684601 14.4585859,1.66144444 C14.538525,1.96473812 14.7719214,2.20173767 15.0708569,2.28316765 C15.3697924,2.36459763 15.6888517,2.2780869 15.907848,2.0562232 C16.1268444,1.83435951 16.2125072,1.51084923 16.1325681,1.20755556 L16.1325681,1.20755556 Z" id="Shape"></path>
            </g>
        </g>
    </g>
</svg>