<?xml version="1.0" encoding="UTF-8"?>
<svg width="460px" height="460px" viewBox="0 0 460 460" version="1.1" xmlns="http://www.w3.org/2000/svg" xmlns:xlink="http://www.w3.org/1999/xlink">
    <!-- Generator: Sketch 55 (78076) - https://sketchapp.com -->
    <title>Graphics/single-man-circle</title>
    <desc>Created with Sketch.</desc>
    <g id="Symbols" stroke="none" stroke-width="1" fill="none" fill-rule="evenodd">
        <g id="Section/CTA/Large-Benefits-R" transform="translate(-10.000000, -58.000000)" fill="#A5A5A5">
            <g id="Graphics/single-man-circle">
                <g transform="translate(10.000000, 58.000000)">
                    <g id="single-man-circle">
                        <path d="M230,0 C102.974508,-7.77806814e-15 1.55561363e-14,102.974508 0,230 C-1.55561363e-14,357.025492 102.974508,460 230,460 C357.025492,460 460,357.025492 460,230 C459.862674,103.031433 356.968567,0.137326246 230,0 Z M230,421.666667 C183.810681,421.692556 139.179041,404.967608 104.381667,374.593333 C101.912903,372.440948 100.71435,369.176813 101.203626,365.93827 C101.692903,362.699726 103.802239,359.935344 106.796667,358.608333 C124.046667,350.941667 144.114167,343.6775 163.894167,336.528333 C171.100833,333.9025 178.288333,331.295833 185.3225,328.689167 C187.20106,327.98591 188.446123,326.190881 188.446667,324.185 L188.446667,290.854167 C188.444201,289.195385 187.580597,287.656863 186.165833,286.790833 C169.959644,275.354996 160.595138,256.532339 161.249167,236.708333 C161.162047,235.129302 160.301433,233.694944 158.949167,232.875 C152.427317,227.850785 148.933528,219.836046 149.691667,211.638333 C149.124754,204.051812 152.012276,196.614683 157.55,191.398333 C159.026361,190.177999 159.630093,188.193232 159.083333,186.3575 C154.234167,168.935 147.583333,142.7725 159.294167,130.065 C164.14505,125.189001 170.953965,122.790005 177.79,123.548333 C179.581082,123.63409 181.269086,122.708649 182.16,121.1525 C191.743333,104.439167 218.73,96.8875 243.6275,96.8875 C271.745,96.8875 302.488333,106.470833 307.855,128.014167 C310.782123,147.735838 308.400393,167.881303 300.955,186.376667 C300.357937,188.256784 300.974107,190.310686 302.5075,191.551667 C307.909564,196.790759 310.716423,204.151746 310.174167,211.6575 C310.929204,219.849275 307.435377,227.856866 300.916667,232.875 C299.554608,233.687969 298.685479,235.124546 298.5975,236.708333 C299.243442,256.558522 289.838752,275.396728 273.585,286.81 C272.170237,287.67603 271.306632,289.214552 271.304167,290.873333 L271.304167,324.204167 C271.29883,326.213225 272.557186,328.008684 274.4475,328.689167 C282.248333,331.583333 290.010833,334.439167 297.62,337.141667 C318.281667,344.616667 337.314167,351.4975 353.203333,358.474167 C356.211295,359.790765 358.335802,362.555677 358.833327,365.801249 C359.330852,369.046821 358.132123,372.321163 355.656667,374.478333 C320.865996,404.902923 276.217382,421.66999 230,421.666667 Z" id="Shape" fill-rule="nonzero"></path>
                    </g>
                </g>
            </g>
        </g>
    </g>
</svg>